<svg width="607" height="322" viewBox="0 0 607 322" fill="none" xmlns="http://www.w3.org/2000/svg">
<path d="M63.1689 244.458C64.7945 242.663 65.4495 240.034 61.1609 232.66C52.5404 217.852 33.031 224.618 30.344 232.619C29.7726 234.32 31.6468 232.486 32.6915 233.966C38.2496 241.858 58.9783 249.116 63.1689 244.458Z" fill="#7CA417"/>
<path d="M37.8934 76.7162C39.5668 75.7262 37.9555 77.7088 50.0686 79.3297C69.9749 81.9944 85.2243 112.414 83.9741 135.091C83.7063 139.913 82.8935 154.681 73.4149 161.228C72.2363 162.044 67.809 165.383 62.6573 164.278C10.4257 153.096 26.1294 90.3887 36.667 81.1993C39.4998 78.7193 36.2917 77.6703 37.8934 76.7162Z" fill="#346E00"/>
<path d="M77.1657 225.838C69.9486 224.577 70.4148 206.603 76.1784 194.277C76.1784 194.277 86.5702 169.93 116.314 175.637C118.248 176.006 119.161 175.409 118.922 175.929C117.693 178.609 119.543 181.315 116.07 189.589C113.624 195.413 98.253 229.524 77.1657 225.838Z" fill="#7CA417"/>
<path d="M77.2733 168.635C81.8536 171.58 92.7021 159.936 110.98 140.318C110.98 140.318 119.4 131.28 130.064 113.963C134.518 106.731 134.329 104.161 134.329 104.161C131.836 100.355 112.348 108.629 97.5812 121.15C90.8709 126.841 80.1635 136.179 76.6685 151.862C75.9728 154.963 73.4723 166.189 77.2733 168.635Z" fill="#7CA417"/>
<path d="M60.4986 178.971C56.8243 181.369 52.5285 175.273 30.1599 159.361C17.9297 150.664 8.44152 144.817 2.32404 131.991C-0.635486 125.784 -0.166934 123.625 0.492864 122.709C2.67785 119.667 22.4072 120.732 35.4789 127.908C41.123 131.006 54.4887 138.346 60.2237 154.345C63.09 162.329 65.263 175.863 60.4986 178.971Z" fill="#7CA417"/>
<path d="M67.2424 172.5C65.8081 164.225 64.1482 155.998 62.2629 147.82C60.3504 139.651 58.1607 131.56 55.7151 123.553C53.2695 115.546 50.5491 107.626 47.5872 99.8087C44.6252 91.9915 41.4314 84.2743 37.9914 76.6674C41.6251 84.1597 45.0284 91.7777 48.2015 99.5214C51.3746 107.265 54.3015 115.121 56.9821 123.089C59.65 131.039 62.0764 139.115 64.2088 147.269C66.3412 155.422 68.2202 163.657 69.8792 171.944L67.2424 172.5Z" fill="#7CA417"/>
<path d="M68.9135 233.433C71.8204 227.993 74.8899 222.645 78.1674 217.46L80.6751 213.613L83.2856 209.837C83.5007 209.519 83.7278 209.211 83.9549 208.904L84.6267 207.98L85.9845 206.134C86.4292 205.513 86.9073 204.921 87.3782 204.321L88.7911 202.525C92.584 197.763 96.6973 193.306 101.098 189.189C105.509 185.1 110.242 181.428 115.243 178.214C110.354 181.589 105.746 185.411 101.471 189.638C97.2256 193.877 93.2753 198.444 89.6517 203.302L88.3058 205.134C87.8564 205.744 87.3997 206.347 86.979 206.978L85.6857 208.852L85.0403 209.789C84.8251 210.101 84.6099 210.412 84.4067 210.735L81.9325 214.564L79.5635 218.47C76.4557 223.717 73.587 229.119 70.8713 234.605L68.9135 233.433Z" fill="#346E00"/>
<path d="M66.4584 183.254C70.716 176.524 74.7537 169.594 78.9706 162.777C83.1876 155.96 87.5576 149.233 92.3196 142.827C93.5069 141.225 94.7213 139.645 95.9628 138.087C97.1988 136.525 98.4682 134.997 99.7567 133.486L100.73 132.36L101.722 131.25C102.377 130.503 103.068 129.795 103.739 129.067C105.112 127.641 106.498 126.246 107.93 124.884C110.777 122.16 113.737 119.58 116.775 117.113C119.814 114.646 122.94 112.307 126.165 110.137C122.991 112.391 119.926 114.815 116.947 117.351C113.969 119.888 111.078 122.542 108.308 125.328C102.716 130.852 97.7892 137.087 93.2041 143.565C88.619 150.044 84.4211 156.848 80.3835 163.755C76.3458 170.661 72.4611 177.684 68.3254 184.583L66.4584 183.254Z" fill="#346E00"/>
<path d="M65.8559 191.487C64.7572 187.682 63.316 184.002 61.5529 180.497C59.7988 176.947 57.8585 173.506 55.7414 170.192C51.4834 163.539 46.7135 157.281 41.4817 151.482C36.2652 145.642 30.5941 140.29 24.5301 135.484C18.4676 130.703 11.9652 126.492 5.02063 123.268C12.0346 126.307 18.6469 130.354 24.8624 134.997C31.0738 139.671 36.9024 144.905 42.2849 150.641C47.7078 156.358 52.6752 162.552 57.1351 169.158C59.3684 172.477 61.4252 175.929 63.2956 179.497C65.2022 183.086 66.7794 186.865 68.0051 190.781L65.8559 191.487Z" fill="#346E00"/>
<path d="M69.8052 250.042C68.8512 248.671 67.7804 247.398 66.6066 246.241C65.4182 245.044 64.1718 243.916 62.8725 242.86C60.247 240.739 57.4684 238.846 54.5629 237.197C51.6524 235.526 48.6131 234.128 45.4787 233.017C42.3361 231.882 39.0743 231.171 35.7682 230.899C39.1051 230.971 42.4207 231.488 45.6389 232.437C48.8726 233.368 52.0249 234.599 55.0601 236.115C58.1151 237.619 61.0536 239.381 63.8479 241.386C65.255 242.397 66.6115 243.486 67.9118 244.65C69.2487 245.829 70.4804 247.138 71.5909 248.562L69.8052 250.042Z" fill="#346E00"/>
<path d="M10.3444 171.377C10.3946 168.707 39.9708 159.636 61.4788 196.042C66.5994 204.71 66.0209 219.432 63.1952 218.203C51.9595 213.33 25.2855 203.141 13.3876 173.816C12.0035 170.407 10.3181 172.793 10.3444 171.377Z" fill="#346E00"/>
<path d="M70.5845 161.816C70.4912 164.124 70.3239 166.409 70.1542 168.681L69.6282 175.47C69.4466 177.725 69.2697 179.976 69.1119 182.231C68.9541 184.485 68.727 186.729 68.4592 188.981C67.5365 200.779 68.9589 213.895 69.3127 216.167C69.4944 217.301 69.6474 218.434 69.8027 219.57C69.9581 220.706 70.0633 221.858 70.1637 223.002C70.3741 225.29 70.5534 227.575 70.7231 229.86C71.0626 234.433 71.2849 239.008 71.3232 243.591C71.3614 248.174 71.2706 252.755 71.0602 257.336C71.0004 258.482 70.9478 259.626 70.8689 260.772C70.7901 261.919 70.704 263.06 70.6299 264.204C70.5558 265.348 70.4195 266.492 70.3143 267.635C70.2091 268.779 70.0609 269.918 69.9008 271.059H69.5422C69.272 268.772 69.0808 266.492 68.8872 264.212C68.6935 261.932 68.5238 259.651 68.3684 257.374C68.0608 252.819 67.7955 248.267 67.5723 243.717C67.3524 239.167 67.2472 234.612 67.1588 230.06C67.111 227.785 67.0536 225.508 66.9747 223.238L66.8719 219.834C66.8528 218.696 66.8217 217.554 66.8193 216.411C66.7954 214.125 66.7906 211.83 66.7524 209.535C66.7141 207.239 66.6328 204.946 66.5372 202.656C66.4416 200.366 66.2982 198.076 66.1404 195.778C65.9826 193.48 65.7866 191.176 65.7101 188.853C65.5427 184.236 66.0472 179.62 66.7835 175.07C67.5556 170.531 68.6122 166.037 70.2426 161.734L70.5845 161.816Z" fill="#7CA417"/>
<path d="M67.8544 228.67C66.9656 225.571 65.8133 222.566 64.412 219.693C63.0114 216.777 61.4697 213.941 59.7934 211.196C56.4227 205.684 52.6489 200.468 48.5075 195.598C46.4357 193.16 44.2786 190.808 42.0362 188.542C39.7867 186.291 37.4463 184.136 35.0127 182.11C30.1479 178.063 24.9054 174.485 19.2349 171.833C24.9723 174.301 30.3415 177.732 35.3474 181.631C37.8527 183.587 40.2672 185.68 42.598 187.873C44.9288 190.066 47.1664 192.382 49.3227 194.775C53.6508 199.568 57.6173 204.722 61.1847 210.189C62.9745 212.934 64.6294 215.778 66.1428 218.708C67.6908 221.663 68.9801 224.765 69.994 227.975L67.8544 228.67Z" fill="#7CA417"/>
<path d="M91.7052 252.437H45.646C45.3277 252.437 45.0125 252.504 44.7184 252.635C44.4243 252.766 44.1571 252.957 43.932 253.199C43.7069 253.44 43.5283 253.727 43.4065 254.042C43.2847 254.358 43.222 254.696 43.222 255.038V261.431C43.2226 262.121 43.4783 262.781 43.9328 263.269C44.3873 263.756 45.0035 264.029 45.646 264.029H46.6572L49.2462 304.57C49.2462 305.604 49.6293 306.597 50.3112 307.328C50.9931 308.06 51.9179 308.471 52.8823 308.471H84.4737C85.438 308.471 86.3629 308.06 87.0448 307.328C87.7267 306.597 88.1098 305.604 88.1098 304.57L90.694 264.029H91.7052C92.3477 264.029 92.9639 263.756 93.4184 263.269C93.8729 262.781 94.1286 262.121 94.1292 261.431V255.038C94.1292 254.348 93.8738 253.686 93.4192 253.199C92.9646 252.711 92.3481 252.437 91.7052 252.437Z" fill="#1E1735"/>
<path d="M306.321 321.092C472.382 321.092 607 317.115 607 312.21C607 307.305 472.382 303.328 306.321 303.328C140.261 303.328 5.64215 307.305 5.64215 312.21C5.64215 317.115 140.261 321.092 306.321 321.092Z" fill="#1E1735"/>
<path d="M66.0304 282.652H149.057V279.228V258.967V255.543H65.9013C62.5862 255.549 59.4053 256.949 57.0411 259.442C54.6769 261.935 53.3177 265.323 53.2552 268.879C53.1309 276.458 58.9376 282.652 66.0304 282.652Z" fill="#312553"/>
<path d="M74.6317 280.992H154.752V257.292H74.6317C71.7027 257.293 68.8942 258.543 66.8235 260.765C64.7529 262.987 63.5897 266.001 63.5897 269.143C63.5903 272.285 64.7538 275.298 66.8244 277.52C68.8949 279.742 71.7032 280.991 74.6317 280.992Z" fill="#CBBEED"/>
<path d="M74.7632 282.652H156.179C156.389 282.652 156.597 282.608 156.792 282.522C156.986 282.436 157.163 282.309 157.311 282.15C157.46 281.991 157.578 281.801 157.659 281.593C157.739 281.385 157.781 281.161 157.781 280.936C157.781 280.48 157.612 280.043 157.312 279.721C157.011 279.399 156.604 279.218 156.179 279.218H74.7441C69.4418 279.218 65.0838 274.601 65.1818 268.907C65.2281 266.252 66.2429 263.722 68.0084 261.861C69.7738 259.999 72.1492 258.955 74.6246 258.951H156.179C156.389 258.952 156.597 258.907 156.792 258.821C156.986 258.735 157.163 258.609 157.311 258.45C157.46 258.29 157.578 258.101 157.659 257.893C157.739 257.684 157.781 257.461 157.781 257.235C157.781 256.78 157.612 256.343 157.312 256.02C157.011 255.698 156.604 255.517 156.179 255.517H74.6174C71.3026 255.524 68.1224 256.924 65.7587 259.417C63.395 261.91 62.0362 265.298 61.9736 268.854C61.8493 276.458 67.668 282.652 74.7632 282.652Z" fill="#7764A6"/>
<path d="M67.8664 255.412H154.814C155.107 255.412 155.388 255.287 155.595 255.065C155.802 254.843 155.918 254.541 155.918 254.227C155.918 253.913 155.802 253.611 155.595 253.389C155.388 253.167 155.107 253.042 154.814 253.042V245.269C155.107 245.269 155.388 245.144 155.595 244.922C155.802 244.699 155.918 244.398 155.918 244.084C155.918 243.769 155.802 243.468 155.595 243.246C155.388 243.024 155.107 242.899 154.814 242.899H67.7612C66.9865 242.9 66.2196 243.066 65.5054 243.388C64.7912 243.71 64.1438 244.182 63.6012 244.775C63.0585 245.368 62.6313 246.071 62.3444 246.843C62.0576 247.615 61.917 248.441 61.9306 249.272C61.988 252.699 64.6678 255.412 67.8664 255.412Z" fill="#3A4A1D"/>
<path d="M69.6139 244.348H155.436V253.306H69.6139C69.1879 253.306 68.7792 253.125 68.478 252.802C68.1767 252.478 68.0074 252.04 68.0074 251.583V246.071C68.0074 245.845 68.049 245.621 68.1297 245.412C68.2105 245.203 68.3288 245.013 68.478 244.853C68.6271 244.693 68.8042 244.566 68.9991 244.479C69.194 244.392 69.4029 244.348 69.6139 244.348Z" fill="#E1D7F7"/>
<path d="M72.1622 255.412H156.043C156.336 255.412 156.616 255.287 156.824 255.065C157.031 254.843 157.147 254.541 157.147 254.227C157.147 253.913 157.031 253.611 156.824 253.389C156.616 253.167 156.336 253.042 156.043 253.042H72.1335C71.1828 253.048 70.267 252.658 69.578 251.956C68.889 251.253 68.4803 250.291 68.4377 249.272C68.4246 248.753 68.5086 248.236 68.6846 247.752C68.8607 247.268 69.1253 246.826 69.4628 246.454C69.8003 246.081 70.204 245.785 70.6499 245.582C71.0959 245.379 71.5751 245.275 72.0594 245.274H156.043C156.336 245.274 156.616 245.149 156.824 244.927C157.031 244.704 157.147 244.403 157.147 244.089C157.147 243.775 157.031 243.473 156.824 243.251C156.616 243.029 156.336 242.904 156.043 242.904H72.0594C71.2843 242.903 70.5168 243.069 69.8018 243.39C69.0868 243.711 68.4386 244.182 67.8949 244.774C67.3513 245.367 66.9231 246.07 66.6354 246.842C66.3477 247.615 66.2063 248.441 66.2193 249.272C66.2862 252.699 68.966 255.412 72.1622 255.412Z" fill="#7CA417"/>
<path d="M144.441 214.918H62.4445C60.8119 214.918 59.2462 215.614 58.0918 216.852C56.9374 218.091 56.2888 219.77 56.2888 221.522V234.14C56.2888 235.892 56.9374 237.572 58.0918 238.81C59.2462 240.049 60.8119 240.744 62.4445 240.744H144.441" fill="white"/>
<path d="M62.4566 242.712H149.473V212.943H62.4566C60.336 212.944 58.3024 213.848 56.8029 215.457C55.3034 217.065 54.4607 219.247 54.4601 221.522V234.14C54.4626 236.414 55.3061 238.594 56.8054 240.201C58.3047 241.808 60.3372 242.711 62.4566 242.712Z" fill="#FCCC44"/>
<path d="M72.0356 242.678H152.177C152.419 242.678 152.658 242.627 152.882 242.528C153.105 242.429 153.308 242.283 153.479 242.1C153.65 241.916 153.785 241.699 153.878 241.459C153.97 241.22 154.018 240.963 154.018 240.703C154.018 240.444 153.97 240.187 153.878 239.948C153.785 239.708 153.65 239.49 153.479 239.307C153.308 239.124 153.105 238.978 152.882 238.879C152.658 238.78 152.419 238.729 152.177 238.729H72.0356C71.4685 238.73 70.9067 238.612 70.3825 238.38C69.8582 238.148 69.3819 237.807 68.9809 237.377C68.5799 236.946 68.2622 236.435 68.0459 235.873C67.8296 235.31 67.719 234.708 67.7206 234.099V221.491C67.7206 220.884 67.8323 220.283 68.0493 219.722C68.2663 219.161 68.5843 218.651 68.9852 218.222C69.386 217.794 69.8618 217.454 70.3852 217.223C70.9087 216.991 71.4695 216.873 72.0356 216.875H152.177C152.666 216.874 153.134 216.665 153.479 216.295C153.824 215.924 154.018 215.421 154.018 214.897C154.018 214.638 153.97 214.381 153.878 214.142C153.785 213.902 153.65 213.684 153.479 213.501C153.308 213.318 153.105 213.172 152.882 213.073C152.658 212.974 152.419 212.923 152.177 212.923H72.0356C69.9142 212.923 67.8796 213.827 66.3796 215.436C64.8795 217.045 64.0367 219.228 64.0367 221.504V234.112C64.0399 236.386 64.8841 238.565 66.3839 240.171C67.8837 241.777 69.9165 242.679 72.0356 242.678Z" fill="#EA9A26"/>
<path d="M149.473 219.332H72.0188C71.9516 219.332 71.8851 219.318 71.823 219.29C71.761 219.262 71.7046 219.222 71.6571 219.171C71.6096 219.12 71.5719 219.06 71.5462 218.993C71.5205 218.926 71.5072 218.855 71.5072 218.783V218.696C71.5072 218.55 71.5611 218.411 71.6571 218.308C71.753 218.205 71.8831 218.147 72.0188 218.147H149.473V219.332Z" fill="white"/>
<path d="M149.473 222.361H72.0188C71.8831 222.361 71.753 222.303 71.6571 222.2C71.5611 222.097 71.5072 221.957 71.5072 221.812V221.725C71.5072 221.653 71.5205 221.581 71.5462 221.515C71.5719 221.448 71.6096 221.387 71.6571 221.337C71.7046 221.286 71.761 221.245 71.823 221.218C71.8851 221.19 71.9516 221.176 72.0188 221.176H149.473V222.361Z" fill="white"/>
<path d="M149.473 225.39H72.0188C71.8831 225.39 71.753 225.332 71.6571 225.229C71.5611 225.126 71.5072 224.986 71.5072 224.841V224.754C71.5072 224.682 71.5205 224.61 71.5462 224.544C71.5719 224.477 71.6096 224.416 71.6571 224.365C71.7046 224.315 71.761 224.274 71.823 224.246C71.8851 224.219 71.9516 224.205 72.0188 224.205H149.473V225.39Z" fill="white"/>
<path d="M149.473 228.421H72.0188C71.8831 228.421 71.753 228.363 71.6571 228.26C71.5611 228.157 71.5072 228.018 71.5072 227.872V227.785C71.5072 227.713 71.5205 227.642 71.5462 227.575C71.5719 227.508 71.6096 227.448 71.6571 227.397C71.7046 227.346 71.761 227.306 71.823 227.278C71.8851 227.25 71.9516 227.236 72.0188 227.236H149.473V228.421Z" fill="white"/>
<path d="M149.473 231.45H72.0188C71.8831 231.45 71.753 231.392 71.6571 231.289C71.5611 231.186 71.5072 231.047 71.5072 230.901V230.814C71.5072 230.668 71.5611 230.529 71.6571 230.426C71.753 230.323 71.8831 230.265 72.0188 230.265H149.473V231.45Z" fill="white"/>
<path d="M149.473 234.479H72.0188C71.8831 234.479 71.753 234.421 71.6571 234.318C71.5611 234.215 71.5072 234.076 71.5072 233.93V233.843C71.5072 233.697 71.5611 233.558 71.6571 233.455C71.753 233.352 71.8831 233.294 72.0188 233.294H149.473V234.479Z" fill="white"/>
<path d="M149.473 237.51H72.0188C71.8831 237.51 71.753 237.453 71.6571 237.35C71.5611 237.247 71.5072 237.107 71.5072 236.962V236.874C71.5072 236.729 71.5611 236.589 71.6571 236.486C71.753 236.383 71.8831 236.325 72.0188 236.325H149.473V237.51Z" fill="white"/>
<path d="M154.754 262.162H77.2996C77.2324 262.162 77.1659 262.148 77.1038 262.121C77.0417 262.093 76.9853 262.053 76.9378 262.002C76.8903 261.951 76.8526 261.89 76.8269 261.824C76.8012 261.757 76.788 261.686 76.788 261.614V261.526C76.788 261.381 76.8419 261.241 76.9378 261.138C77.0338 261.035 77.1639 260.977 77.2996 260.977H154.754V262.162Z" fill="white"/>
<path d="M154.754 265.189H77.2996C77.1639 265.189 77.0338 265.131 76.9378 265.028C76.8419 264.925 76.788 264.785 76.788 264.64V264.553C76.788 264.407 76.8419 264.268 76.9378 264.165C77.0338 264.062 77.1639 264.004 77.2996 264.004H154.754V265.189Z" fill="white"/>
<path d="M154.754 268.22H77.2996C77.1639 268.22 77.0338 268.162 76.9378 268.059C76.8419 267.957 76.788 267.817 76.788 267.671V267.584C76.788 267.439 76.8419 267.299 76.9378 267.196C77.0338 267.093 77.1639 267.035 77.2996 267.035H154.754V268.22Z" fill="white"/>
<path d="M154.754 271.252H77.2996C77.1639 271.252 77.0338 271.194 76.9378 271.091C76.8419 270.988 76.788 270.848 76.788 270.703V270.616C76.788 270.47 76.8419 270.33 76.9378 270.227C77.0338 270.124 77.1639 270.067 77.2996 270.067H154.754V271.252Z" fill="white"/>
<path d="M154.754 274.281H77.2996C77.2324 274.281 77.1659 274.266 77.1038 274.239C77.0417 274.211 76.9853 274.171 76.9378 274.12C76.8903 274.069 76.8526 274.008 76.8269 273.942C76.8012 273.875 76.788 273.804 76.788 273.732V273.644C76.788 273.499 76.8419 273.359 76.9378 273.256C77.0338 273.153 77.1639 273.096 77.2996 273.096H154.754V274.281Z" fill="white"/>
<path d="M154.754 277.309H77.2996C77.1639 277.309 77.0338 277.252 76.9378 277.149C76.8419 277.046 76.788 276.906 76.788 276.761V276.673C76.788 276.528 76.8419 276.388 76.9378 276.285C77.0338 276.182 77.1639 276.125 77.2996 276.125H154.754V277.309Z" fill="white"/>
<path d="M155.436 247.915H77.9809C77.8453 247.915 77.7151 247.858 77.6192 247.755C77.5233 247.652 77.4694 247.512 77.4694 247.367V247.279C77.4694 247.134 77.5233 246.994 77.6192 246.891C77.7151 246.788 77.8453 246.731 77.9809 246.731H155.436V247.915Z" fill="white"/>
<path d="M155.436 250.934H77.9809C77.8453 250.934 77.7151 250.876 77.6192 250.773C77.5233 250.67 77.4694 250.531 77.4694 250.385V250.298C77.4694 250.152 77.5233 250.013 77.6192 249.91C77.7151 249.807 77.8453 249.749 77.9809 249.749H155.436V250.934Z" fill="white"/>
<path d="M44.0945 308.471H222.173C222.47 308.471 222.765 308.408 223.039 308.286C223.314 308.164 223.563 307.985 223.773 307.759C223.983 307.533 224.15 307.266 224.263 306.971C224.377 306.676 224.435 306.361 224.435 306.042C224.435 305.723 224.377 305.407 224.263 305.113C224.15 304.818 223.983 304.55 223.773 304.325C223.563 304.099 223.314 303.92 223.039 303.798C222.765 303.676 222.47 303.613 222.173 303.613V287.696C222.47 287.696 222.765 287.634 223.039 287.512C223.314 287.389 223.563 287.211 223.773 286.985C223.983 286.759 224.15 286.492 224.263 286.197C224.377 285.902 224.435 285.587 224.435 285.268C224.435 284.949 224.377 284.633 224.263 284.339C224.15 284.044 223.983 283.777 223.773 283.551C223.563 283.326 223.313 283.147 223.039 283.025C222.764 282.904 222.47 282.841 222.173 282.841H43.8842C42.2966 282.841 40.725 283.18 39.2609 283.839C37.7968 284.497 36.4697 285.462 35.357 286.677C34.2442 287.892 33.3682 289.332 32.7801 290.914C32.1919 292.496 31.9034 294.188 31.9313 295.891C32.058 302.913 37.5467 308.471 44.0945 308.471Z" fill="#8C000D"/>
<path d="M47.6756 285.809H223.431V304.157H47.6756C46.8032 304.157 45.9665 303.785 45.3496 303.123C44.7327 302.461 44.3862 301.564 44.3862 300.628V289.343C44.3855 288.879 44.4702 288.42 44.6352 287.991C44.8002 287.562 45.0424 287.173 45.3479 286.844C45.6534 286.516 46.0163 286.256 46.4157 286.078C46.8151 285.9 47.2432 285.809 47.6756 285.809Z" fill="#CBBEED"/>
<path d="M52.8966 308.471H224.688C224.985 308.471 225.279 308.408 225.554 308.286C225.829 308.164 226.078 307.985 226.288 307.759C226.498 307.533 226.664 307.266 226.778 306.971C226.892 306.676 226.95 306.361 226.949 306.042C226.95 305.723 226.892 305.407 226.778 305.113C226.664 304.818 226.498 304.55 226.288 304.325C226.078 304.099 225.829 303.92 225.554 303.798C225.279 303.676 224.985 303.613 224.688 303.613H52.8536C48.8111 303.613 45.383 300.22 45.2683 295.886C45.2408 294.822 45.4121 293.764 45.772 292.773C46.1319 291.781 46.6732 290.877 47.3639 290.114C48.0546 289.351 48.8807 288.744 49.7935 288.329C50.7064 287.913 51.6875 287.698 52.6791 287.696H224.688C224.985 287.696 225.279 287.634 225.554 287.512C225.829 287.389 226.078 287.211 226.288 286.985C226.498 286.759 226.664 286.492 226.778 286.197C226.892 285.902 226.95 285.587 226.949 285.268C226.95 284.949 226.891 284.633 226.778 284.339C226.664 284.044 226.498 283.777 226.288 283.551C226.078 283.326 225.828 283.147 225.554 283.025C225.279 282.904 224.985 282.841 224.688 282.841H52.6838C51.0963 282.841 49.5246 283.18 48.0606 283.839C46.5965 284.497 45.2694 285.462 44.1566 286.677C43.0439 287.892 42.1679 289.332 41.5797 290.914C40.9916 292.496 40.703 294.188 40.731 295.891C40.8601 302.913 46.3488 308.471 52.8966 308.471Z" fill="#E30613"/>
<path d="M223.428 293.093H64.797C64.5193 293.093 64.2529 292.974 64.0565 292.764C63.8602 292.553 63.7499 292.267 63.7499 291.969V291.79C63.7499 291.492 63.8602 291.206 64.0565 290.995C64.2529 290.785 64.5193 290.666 64.797 290.666H223.428V293.095V293.093Z" fill="white"/>
<path d="M223.428 299.299H64.797C64.5193 299.299 64.2529 299.181 64.0565 298.97C63.8602 298.76 63.7499 298.474 63.7499 298.176V297.996C63.7499 297.699 63.8602 297.413 64.0565 297.202C64.2529 296.991 64.5193 296.873 64.797 296.873H223.428V299.302V299.299Z" fill="white"/>
<path d="M493.094 308.424L511.784 306.28C511.992 306.256 512.193 306.189 512.376 306.081C512.56 305.974 512.721 305.829 512.852 305.654C512.983 305.479 513.081 305.279 513.14 305.064C513.198 304.849 513.217 304.623 513.194 304.4L500.601 178.173C500.579 177.951 500.516 177.735 500.416 177.538C500.316 177.341 500.181 177.168 500.019 177.027C499.856 176.887 499.669 176.782 499.469 176.719C499.268 176.656 499.058 176.636 498.851 176.66L480.164 178.807C479.956 178.83 479.755 178.898 479.571 179.005C479.388 179.112 479.226 179.257 479.095 179.431C478.964 179.606 478.866 179.806 478.807 180.021C478.748 180.236 478.729 180.461 478.751 180.684L491.345 306.911C491.39 307.361 491.599 307.773 491.927 308.057C492.256 308.34 492.675 308.473 493.094 308.424Z" fill="#224A3C"/>
<path d="M481.032 203.536L502.881 201.027L502.606 198.27L480.757 200.78L481.032 203.536Z" fill="#FCCC44"/>
<path d="M481.636 209.605L503.485 207.096L503.21 204.339L481.361 206.849L481.636 209.605Z" fill="#FCCC44"/>
<path d="M489.12 284.619L510.969 282.11L510.694 279.353L488.845 281.862L489.12 284.619Z" fill="#FCCC44"/>
<path d="M489.724 290.685L511.573 288.176L511.298 285.42L489.449 287.929L489.724 290.685Z" fill="#FCCC44"/>
<path d="M530.591 308.425L546.347 304.203C546.523 304.156 546.688 304.072 546.833 303.956C546.979 303.841 547.101 303.695 547.194 303.528C547.287 303.361 547.348 303.177 547.374 302.984C547.4 302.792 547.391 302.596 547.346 302.408L522.58 195.996C522.536 195.807 522.458 195.63 522.35 195.474C522.242 195.318 522.106 195.186 521.951 195.086C521.795 194.987 521.623 194.921 521.444 194.893C521.264 194.865 521.082 194.875 520.906 194.923L505.15 199.145C504.974 199.192 504.809 199.276 504.664 199.392C504.518 199.507 504.395 199.653 504.303 199.82C504.21 199.987 504.148 200.171 504.122 200.364C504.096 200.556 504.106 200.752 504.151 200.94L528.924 307.36C529.015 307.738 529.24 308.062 529.553 308.261C529.865 308.461 530.238 308.52 530.591 308.425Z" fill="#FCCC44"/>
<path d="M508.639 220.162L527.062 215.227L526.521 212.903L508.098 217.838L508.639 220.162Z" fill="#E30613"/>
<path d="M509.832 225.279L528.254 220.344L527.713 218.019L509.291 222.955L509.832 225.279Z" fill="#E30613"/>
<path d="M524.557 288.524L542.979 283.588L542.438 281.264L524.016 286.199L524.557 288.524Z" fill="#E30613"/>
<path d="M525.748 293.635L544.171 288.7L543.63 286.376L525.207 291.311L525.748 293.635Z" fill="#E30613"/>
<path d="M550.129 308.425L565.885 304.203C566.061 304.156 566.227 304.073 566.372 303.957C566.518 303.841 566.641 303.696 566.734 303.529C566.827 303.362 566.888 303.177 566.915 302.985C566.941 302.792 566.931 302.596 566.887 302.408L542.111 195.996C542.067 195.807 541.989 195.63 541.881 195.474C541.773 195.318 541.637 195.186 541.482 195.086C541.326 194.987 541.154 194.921 540.975 194.893C540.795 194.865 540.613 194.875 540.437 194.923L524.684 199.145C524.508 199.192 524.342 199.275 524.196 199.391C524.051 199.507 523.928 199.652 523.835 199.819C523.741 199.986 523.68 200.171 523.654 200.363C523.628 200.556 523.637 200.752 523.682 200.94L548.458 307.36C548.502 307.548 548.581 307.724 548.689 307.88C548.797 308.035 548.932 308.166 549.087 308.264C549.243 308.363 549.415 308.428 549.593 308.456C549.772 308.483 549.954 308.473 550.129 308.425Z" fill="#EA9A26"/>
<path d="M528.179 220.16L546.601 215.225L546.06 212.901L527.638 217.836L528.179 220.16Z" fill="#FCCC44"/>
<path d="M529.369 225.279L547.791 220.344L547.25 218.02L528.828 222.955L529.369 225.279Z" fill="#FCCC44"/>
<path d="M544.096 288.521L562.519 283.586L561.978 281.262L543.555 286.197L544.096 288.521Z" fill="#FCCC44"/>
<path d="M545.285 293.633L563.708 288.698L563.167 286.374L544.744 291.309L545.285 293.633Z" fill="#FCCC44"/>
<path d="M566.248 297.868L562.816 297.032C562.634 296.985 562.477 296.864 562.377 296.694C562.278 296.525 562.244 296.32 562.282 296.124L576.865 227.177C576.909 226.982 577.022 226.814 577.18 226.707C577.338 226.6 577.529 226.564 577.711 226.605L581.147 227.441C581.328 227.488 581.485 227.61 581.585 227.779C581.685 227.949 581.718 228.153 581.68 228.349L567.085 297.296C567.041 297.489 566.93 297.656 566.774 297.762C566.618 297.869 566.43 297.907 566.248 297.868Z" fill="#E30613"/>
<path d="M580.773 223.361L579.741 223.11C579.421 223.032 579.104 223.247 579.031 223.589L577.804 229.392C577.731 229.734 577.931 230.075 578.251 230.153L579.283 230.404C579.602 230.482 579.92 230.267 579.993 229.925L581.22 224.122C581.293 223.78 581.093 223.439 580.773 223.361Z" fill="#E30613"/>
<path d="M562.741 305.901C562.502 305.843 562.292 305.691 562.151 305.475C562.011 305.259 561.951 304.995 561.984 304.734L563.033 296.291C563.051 296.145 563.098 296.005 563.169 295.88C563.24 295.755 563.335 295.647 563.448 295.563C563.56 295.479 563.688 295.422 563.822 295.394C563.957 295.366 564.095 295.368 564.228 295.401L565.629 295.742C565.763 295.774 565.888 295.836 565.998 295.924C566.107 296.011 566.199 296.122 566.266 296.249C566.334 296.377 566.376 296.518 566.39 296.664C566.403 296.81 566.389 296.957 566.347 297.096L563.896 305.198C563.82 305.449 563.66 305.66 563.446 305.79C563.232 305.92 562.981 305.96 562.741 305.901Z" fill="#EA9A26"/>
<path d="M573.676 292.9L570.415 291.995C570.243 291.945 570.097 291.823 570.007 291.658C569.918 291.492 569.892 291.296 569.937 291.11L585.76 225.638C585.807 225.453 585.92 225.295 586.075 225.199C586.23 225.102 586.414 225.076 586.587 225.125L589.848 226.031C590.02 226.082 590.167 226.204 590.257 226.37C590.346 226.535 590.371 226.733 590.326 226.918L574.503 292.387C574.457 292.573 574.343 292.731 574.188 292.827C574.033 292.923 573.849 292.95 573.676 292.9Z" fill="#3A4A1D"/>
<path d="M589.595 222.094L588.618 221.822C588.314 221.738 588.003 221.934 587.925 222.26L586.594 227.766C586.515 228.093 586.698 228.426 587.002 228.51L587.979 228.782C588.283 228.867 588.594 228.671 588.672 228.344L590.003 222.838C590.082 222.511 589.899 222.178 589.595 222.094Z" fill="#3A4A1D"/>
<path d="M570.107 300.474C569.88 300.411 569.683 300.258 569.555 300.047C569.427 299.836 569.377 299.581 569.416 299.332L570.647 291.292C570.668 291.154 570.716 291.022 570.788 290.905C570.859 290.787 570.953 290.687 571.062 290.611C571.172 290.534 571.295 290.483 571.424 290.46C571.553 290.438 571.685 290.444 571.811 290.479L573.143 290.848C573.269 290.884 573.388 290.947 573.49 291.034C573.593 291.121 573.677 291.23 573.739 291.354C573.8 291.478 573.836 291.614 573.846 291.754C573.855 291.894 573.837 292.035 573.793 292.167L571.228 299.838C571.148 300.074 570.989 300.271 570.782 300.388C570.575 300.506 570.334 300.537 570.107 300.474Z" fill="#3A4A1D"/>
<path d="M548.89 231.255L552.371 230.681C552.557 230.652 552.746 230.704 552.897 230.823C553.048 230.942 553.149 231.12 553.179 231.319L563.167 301.205C563.193 301.403 563.145 301.605 563.034 301.766C562.923 301.928 562.758 302.036 562.574 302.069L559.093 302.641C558.908 302.669 558.72 302.619 558.569 302.501C558.418 302.382 558.317 302.205 558.285 302.008L548.298 232.122C548.271 231.923 548.319 231.721 548.429 231.559C548.54 231.397 548.706 231.288 548.89 231.255Z" fill="#312553"/>
<path d="M560.871 298.971L559.824 299.143C559.5 299.196 559.278 299.521 559.328 299.868L560.168 305.75C560.217 306.097 560.52 306.335 560.844 306.282L561.89 306.11C562.214 306.057 562.436 305.732 562.387 305.385L561.547 299.503C561.497 299.156 561.195 298.918 560.871 298.971Z" fill="#312553"/>
<path d="M549.407 222.402C549.649 222.362 549.896 222.421 550.1 222.566C550.304 222.712 550.45 222.934 550.509 223.189L552.421 231.458C552.454 231.6 552.459 231.748 552.435 231.893C552.412 232.037 552.361 232.175 552.285 232.297C552.209 232.419 552.11 232.523 551.995 232.602C551.88 232.681 551.751 232.733 551.616 232.755L550.196 232.989C550.061 233.011 549.923 233.002 549.791 232.964C549.659 232.926 549.536 232.859 549.43 232.767C549.324 232.675 549.236 232.561 549.173 232.43C549.111 232.3 549.074 232.158 549.065 232.012L548.587 223.51C548.571 223.249 548.646 222.991 548.798 222.786C548.949 222.581 549.166 222.444 549.407 222.402Z" fill="#312553"/>
<path d="M569.81 221.83L573.315 222.191C573.5 222.213 573.671 222.312 573.79 222.467C573.908 222.622 573.966 222.82 573.951 223.02L567.635 293.398C567.614 293.597 567.522 293.78 567.378 293.907C567.234 294.035 567.049 294.097 566.863 294.08L563.358 293.718C563.172 293.696 563.002 293.598 562.883 293.443C562.765 293.288 562.707 293.09 562.722 292.89L569.038 222.515C569.058 222.315 569.15 222.131 569.294 222.004C569.438 221.876 569.624 221.813 569.81 221.83Z" fill="#FCCC44"/>
<path d="M564.256 291.086L563.725 297.009C563.693 297.358 563.932 297.669 564.258 297.703L565.312 297.812C565.638 297.845 565.927 297.589 565.959 297.239L566.49 291.317C566.522 290.967 566.283 290.656 565.957 290.623L564.903 290.514C564.577 290.48 564.287 290.736 564.256 291.086Z" fill="#FCCC44"/>
<path d="M572.337 213.394C572.581 213.421 572.807 213.543 572.971 213.739C573.135 213.934 573.225 214.188 573.224 214.451L573.183 222.968C573.182 223.115 573.153 223.26 573.097 223.393C573.041 223.527 572.96 223.647 572.858 223.745C572.757 223.843 572.638 223.917 572.508 223.964C572.378 224.01 572.241 224.026 572.105 224.012L570.671 223.866C570.535 223.852 570.404 223.807 570.285 223.735C570.166 223.663 570.062 223.565 569.98 223.448C569.899 223.331 569.84 223.197 569.809 223.054C569.779 222.912 569.776 222.764 569.801 222.62L571.273 214.248C571.319 213.989 571.454 213.758 571.651 213.6C571.848 213.442 572.092 213.369 572.337 213.394Z" fill="#FCCC44"/>
<path d="M562.132 293.326L558.613 293.457C558.426 293.461 558.245 293.387 558.109 293.251C557.972 293.114 557.891 292.926 557.881 292.726L555.579 222.068C555.575 221.867 555.644 221.672 555.772 221.525C555.899 221.378 556.076 221.29 556.263 221.281L559.782 221.15C559.969 221.146 560.149 221.22 560.286 221.356C560.422 221.493 560.504 221.681 560.513 221.881L562.813 292.541C562.817 292.741 562.748 292.935 562.621 293.082C562.494 293.228 562.318 293.316 562.132 293.326Z" fill="#7764A6"/>
<path d="M558.425 217.348L557.366 217.388C557.039 217.4 556.783 217.695 556.795 218.046L556.988 223.992C557 224.344 557.274 224.618 557.601 224.606L558.66 224.566C558.987 224.554 559.243 224.259 559.232 223.908L559.038 217.962C559.027 217.611 558.752 217.336 558.425 217.348Z" fill="#7764A6"/>
<path d="M560.654 302.054C560.409 302.063 560.17 301.973 559.983 301.802C559.796 301.631 559.676 301.392 559.646 301.13L558.651 292.667C558.634 292.522 558.645 292.374 558.684 292.234C558.722 292.093 558.788 291.963 558.877 291.852C558.965 291.74 559.074 291.65 559.197 291.586C559.32 291.522 559.454 291.487 559.591 291.482L561.025 291.428C561.161 291.423 561.297 291.448 561.424 291.503C561.551 291.557 561.666 291.639 561.761 291.743C561.857 291.848 561.931 291.972 561.979 292.109C562.027 292.246 562.048 292.393 562.041 292.539L561.599 301.046C561.588 301.31 561.484 301.56 561.309 301.747C561.135 301.934 560.901 302.043 560.654 302.054Z" fill="#7764A6"/>
<path d="M582.206 261.742H551.346C550.716 261.742 550.205 262.289 550.205 262.965V307.247C550.205 307.923 550.716 308.471 551.346 308.471H582.206C582.835 308.471 583.346 307.923 583.346 307.247V262.965C583.346 262.289 582.835 261.742 582.206 261.742Z" fill="#312553"/>
<path d="M583.343 269.867H550.205C549.766 269.867 549.344 269.68 549.033 269.346C548.722 269.013 548.547 268.561 548.546 268.089C548.547 267.618 548.722 267.166 549.033 266.832C549.344 266.499 549.766 266.312 550.205 266.312H583.343C583.783 266.312 584.205 266.499 584.516 266.832C584.827 267.166 585.002 267.618 585.002 268.089C585.002 268.561 584.827 269.013 584.516 269.346C584.205 269.68 583.783 269.867 583.343 269.867Z" fill="#7764A6"/>
<path d="M169.088 195.734C167.996 190.974 160.599 184.616 154.403 183.508C148.316 182.421 145.166 183.359 139.942 183.959C121.563 186.073 103.768 204.646 84.4044 205.246C83.9066 205.198 83.4048 205.263 82.9318 205.436C80.7444 206.39 79.695 212.302 80.711 213.266C80.8853 213.426 81.1083 213.511 81.3373 213.505C107.548 210.26 132.735 215.664 155.66 212.376C162.258 211.43 164.116 209.555 165.99 207.909C169.143 205.131 170.04 199.881 169.088 195.734Z" fill="#EC7D40"/>
<path d="M135.187 195.67C136.422 194.753 137.745 193.979 139.132 193.362C141.917 192.109 144.879 191.366 147.893 191.164C149.395 191.057 150.904 191.124 152.392 191.364C150.913 191.656 149.454 191.9 148.008 192.189C146.562 192.479 145.139 192.792 143.705 193.146C142.271 193.5 140.863 193.898 139.45 194.334C138.037 194.77 136.636 195.231 135.187 195.67Z" fill="black"/>
<path d="M159.758 250.342C153.095 234.697 145.811 200.35 143.203 194.295C140.674 188.422 139.139 186.552 138.039 185.431C134.712 182.033 130.923 180.925 126.677 179.892C115.891 177.263 109.833 177.583 96.2735 175.46C90.4624 174.538 84.5867 174.167 78.7148 174.352C73.9456 174.501 72.3845 175.827 70.9693 176.917C64.9427 181.533 67.2209 192.718 67.8616 194.852C68.3779 196.552 70.4912 202.112 76.1234 204.582C78.3634 205.562 81.7484 206.136 88.5185 205.482C93.3355 205.018 96.0345 204.713 100.33 204.374C104.191 204.067 119.814 202.736 123.507 207.249C125.388 209.558 125.379 213.148 125.572 215.905C126.612 230.781 137.494 242.427 145.813 254.107C150.779 253.727 155.698 252.716 159.758 250.342Z" fill="#312553"/>
<path d="M137.827 213.497C131.967 213.497 126.113 213.241 119.921 212.984C113.73 212.728 107.28 212.44 100.823 212.44H99.9598L99.924 212.263C99.2 208.686 99.0024 205.009 99.3383 201.366V201.228L99.4602 201.176C104.361 199.15 109.262 196.475 114.007 193.89C122.462 189.273 131.205 184.511 139.909 183.511C140.975 183.387 141.95 183.254 142.892 183.121C145.044 182.818 146.918 182.559 149.108 182.559C150.893 182.571 152.675 182.743 154.434 183.072C160.52 184.159 168.158 190.53 169.289 195.465C170.171 199.312 169.557 204.839 166.121 207.88L165.882 208.086C164.092 209.678 162.057 211.481 155.679 212.397C150.406 213.143 144.73 213.497 137.827 213.497Z" fill="#1E1735"/>
<path d="M172.437 269.818C171.44 267.087 166.136 264.463 159.93 250.762C159.915 250.724 159.903 250.683 159.884 250.642C153.191 235.151 145.828 200.389 143.203 194.295C140.674 188.422 139.139 186.552 138.039 185.431C134.712 182.033 130.923 180.925 126.677 179.892C115.891 177.263 109.833 177.583 96.2736 175.46C90.4624 174.538 84.5867 174.167 78.7148 174.352C73.9456 174.501 72.3845 175.827 70.9693 176.917C64.9427 181.533 67.2209 192.718 67.8616 194.852C68.3779 196.552 70.4912 202.112 76.1234 204.582C78.3634 205.562 81.7484 206.136 88.5185 205.482C93.3355 205.018 96.0345 204.713 100.33 204.374C104.191 204.067 119.814 202.736 123.507 207.249C125.388 209.558 125.379 213.148 125.572 215.905C127.052 237.067 148.457 251.701 154.059 269.192C155.71 274.355 157.807 275.645 159.597 277.233C163.855 281.008 171.197 282.298 173.415 279.351C175.105 277.12 173.556 272.867 172.437 269.818Z" fill="#F79556"/>
<path d="M153.686 268.566C152.76 268.743 150.724 278.056 152.698 281.241C153.389 282.352 162.316 288.989 166.516 291.831C168.39 293.09 170.373 294.153 172.437 295.006C173.814 295.573 177.596 297.507 184.065 297.124C186.365 296.989 189.951 295.706 192.179 294.147C193.584 293.162 193.979 292.37 194.153 292.028C195.086 290.202 193.501 287.114 193.166 286.535C191.686 283.986 189.877 283.457 186.257 281.241C180.355 277.633 177.03 273.406 173.425 268.533C172.425 267.182 172.918 266.317 172.038 265.786C170.575 264.907 166.643 267.966 163.155 271.711C162.167 272.77 160.764 273.911 158.613 273.201C155.299 272.098 154.776 268.361 153.686 268.566Z" fill="#312553"/>
<path d="M152.698 277.004C154.29 278.105 155.923 279.123 157.556 280.144L162.457 283.201L167.357 286.253C168.988 287.279 170.616 288.304 172.256 289.292C172.662 289.548 173.076 289.805 173.472 290.025C173.678 290.146 173.857 290.243 174.063 290.338C174.268 290.433 174.479 290.523 174.692 290.608C175.55 290.947 176.429 291.227 177.321 291.444C179.115 291.896 180.956 292.097 182.798 292.041C184.646 291.981 186.472 291.596 188.203 290.9C188.423 290.818 188.633 290.718 188.849 290.623C189.064 290.528 189.272 290.428 189.477 290.313C189.891 290.089 190.295 289.833 190.696 289.574C191.098 289.315 191.493 289.035 191.877 288.743C192.271 288.464 192.638 288.146 192.975 287.791C192.366 288.579 191.669 289.284 190.9 289.889C190.522 290.206 190.129 290.503 189.724 290.777C189.52 290.918 189.308 291.049 189.095 291.167C188.882 291.285 188.672 291.423 188.452 291.523C186.692 292.411 184.797 292.95 182.858 293.116C179.94 293.356 177.007 292.933 174.252 291.874C174.013 291.785 173.793 291.692 173.561 291.585C173.328 291.481 173.099 291.364 172.877 291.236C172.437 290.979 172.033 290.741 171.615 290.49C169.973 289.464 168.345 288.424 166.729 287.371C165.122 286.296 163.508 285.232 161.928 284.114C160.348 282.996 158.766 281.875 157.212 280.71C155.65 279.557 154.144 278.32 152.698 277.004Z" fill="#E30613"/>
<path d="M168.615 276.094C169.181 275.668 169.768 275.276 170.374 274.919L172.086 273.875C172.65 273.532 173.209 273.188 173.759 272.826C174.345 272.468 174.905 272.061 175.433 271.611C175.383 272.004 175.259 272.383 175.069 272.724C174.883 273.061 174.662 273.376 174.412 273.662C173.918 274.224 173.348 274.702 172.719 275.078C172.1 275.454 171.435 275.739 170.745 275.924C170.05 276.116 169.328 276.173 168.615 276.094Z" fill="#CBBEED"/>
<path d="M170.721 278.351C171.288 277.928 171.874 277.535 172.478 277.176L174.19 276.135C174.754 275.791 175.316 275.448 175.863 275.086C176.449 274.726 177.008 274.319 177.536 273.868C177.487 274.263 177.362 274.642 177.171 274.983C176.985 275.321 176.766 275.636 176.516 275.922C176.022 276.483 175.451 276.96 174.823 277.335C174.204 277.713 173.54 277.999 172.848 278.184C172.154 278.374 171.434 278.431 170.721 278.351Z" fill="#CBBEED"/>
<path d="M172.825 280.61C173.391 280.186 173.979 279.794 174.584 279.436L176.296 278.394C176.86 278.048 177.422 277.707 177.969 277.345C178.555 276.985 179.114 276.578 179.642 276.127C179.593 276.522 179.469 276.902 179.277 277.243C179.092 277.581 178.872 277.896 178.622 278.181C178.128 278.742 177.557 279.218 176.929 279.595C176.309 279.971 175.644 280.256 174.952 280.441C174.258 280.633 173.537 280.69 172.825 280.61Z" fill="#CBBEED"/>
<path d="M174.931 282.87C175.498 282.446 176.085 282.053 176.69 281.695L178.402 280.654C178.966 280.308 179.528 279.967 180.075 279.605C180.661 279.246 181.221 278.838 181.749 278.387C181.701 278.782 181.577 279.162 181.385 279.502C181.2 279.84 180.98 280.154 180.73 280.438C180.236 281 179.664 281.478 179.035 281.854C178.416 282.231 177.751 282.515 177.061 282.7C176.366 282.893 175.644 282.95 174.931 282.87Z" fill="#CBBEED"/>
<path d="M145.658 254.243C144.209 252.209 142.651 250.139 141.145 248.128C133.815 238.367 126.237 228.272 125.367 215.921C125.345 215.605 125.326 215.28 125.305 214.946C125.149 212.335 124.975 209.376 123.354 207.396C121.63 205.287 116.78 204.174 109.326 204.174C105.606 204.174 102.19 204.449 100.548 204.582L100.352 204.597C97.2585 204.854 95.009 205.067 92.1642 205.349L88.5425 205.705C86.6157 205.89 84.8705 205.985 83.3501 205.985C80.2424 205.985 77.914 205.605 76.0493 204.787C70.2904 202.266 68.1772 196.598 67.6656 194.921C66.9668 192.284 66.6444 189.549 66.7093 186.809C66.8384 182.192 68.2704 178.709 70.8498 176.729L70.9956 176.619C72.43 175.519 74.0412 174.272 78.7124 174.126C79.6686 174.095 80.6249 174.08 81.5931 174.08C86.4975 174.074 91.3956 174.457 96.2473 175.226H96.307C101.762 176.083 106.049 176.547 109.828 176.958C115.432 177.565 120.27 178.089 126.727 179.661C131.03 180.707 134.855 181.851 138.185 185.257C139.38 186.486 140.949 188.509 143.397 194.19C144.413 196.549 146.096 203.028 148.226 211.232C151.632 224.346 155.875 240.668 159.951 250.239L160.033 250.429L159.86 250.529C156.26 252.637 151.673 253.863 145.84 254.319H145.727L145.658 254.243Z" fill="#312553"/>
<path d="M77.1657 197.95C75.7553 197.95 75.4517 198.765 73.0348 199.058C72.1957 199.158 72.5065 199.155 71.8084 199.058C70.7183 198.904 69.7956 197.519 67.3619 197.329C61.4859 196.878 55.5238 206.819 55.476 209.029C55.3995 212.638 58.1965 214.048 60.6421 214.569C63.0313 215.046 65.4819 215.046 67.8711 214.569C77.2565 213.01 82.2146 215.023 83.3621 212.353C83.8641 211.184 83.2784 209.937 84.3948 207.921C84.959 206.895 85.5255 206.47 85.4299 205.705C85.3175 204.826 84.4737 204.662 83.3621 203.49C82.0329 202.087 82.4393 201.474 81.2966 200.155C81.0408 199.863 79.3531 197.937 77.1657 197.95Z" fill="#1E1735"/>
<path d="M73.0348 201.274C72.3416 201.461 71.6483 201.617 70.9909 201.853C70.3415 202.071 69.7175 202.368 69.131 202.738C67.956 203.508 66.8494 204.393 65.8249 205.38C64.8039 206.376 63.8598 207.459 63.0016 208.619C62.5713 209.204 62.1529 209.801 61.7657 210.414C61.3784 211.027 60.9983 211.676 60.6421 212.34C60.7976 211.588 61.0259 210.854 61.3234 210.153C61.4668 209.799 61.6342 209.458 61.8015 209.109C61.9689 208.76 62.1529 208.434 62.3514 208.109C63.1232 206.788 64.0621 205.589 65.1412 204.546C66.2229 203.499 67.4434 202.629 68.7629 201.966C69.4358 201.635 70.1515 201.416 70.8857 201.315C71.5991 201.226 72.3189 201.212 73.0348 201.274Z" fill="#E30613"/>
<path d="M74.2851 207.685C74.3191 208.329 74.238 208.975 74.046 209.586C73.8618 210.196 73.5978 210.776 73.2619 211.307C72.9291 211.838 72.5265 212.315 72.0666 212.722C71.6064 213.138 71.0754 213.453 70.5032 213.651C70.8235 213.097 71.1582 212.625 71.4785 212.125C71.7989 211.625 72.112 211.166 72.418 210.686C72.724 210.207 73.0204 209.719 73.3217 209.219C73.6229 208.719 73.9241 208.209 74.2851 207.685Z" fill="#7764A6"/>
<path d="M76.5944 207.685C76.6284 208.329 76.5472 208.975 76.3553 209.586C76.172 210.196 75.9088 210.776 75.5736 211.307C75.2414 211.838 74.8387 212.315 74.3783 212.722C73.9185 213.138 73.3874 213.454 72.8149 213.651C73.1376 213.097 73.4723 212.625 73.7926 212.125C74.113 211.625 74.4237 211.166 74.7297 210.686C75.0357 210.207 75.3322 209.719 75.6334 209.219C75.9346 208.719 76.2334 208.209 76.5944 207.685Z" fill="#7764A6"/>
<path d="M78.9037 207.685C78.9377 208.329 78.8566 208.975 78.6646 209.586C78.4805 210.196 78.2165 210.776 77.8805 211.307C77.5484 211.839 77.1458 212.315 76.6853 212.722C76.2251 213.138 75.6941 213.453 75.1218 213.651C75.4422 213.097 75.7768 212.625 76.0972 212.125C76.4175 211.625 76.7307 211.166 77.0367 210.686C77.3427 210.207 77.6391 209.719 77.9403 209.219C78.2415 208.719 78.5403 208.209 78.9037 207.685Z" fill="#7764A6"/>
<path d="M81.2106 207.685C81.2446 208.329 81.1635 208.975 80.9715 209.586C80.7882 210.196 80.525 210.776 80.1898 211.307C79.857 211.838 79.4544 212.315 78.9945 212.722C78.5335 213.138 78.0017 213.453 77.4287 213.651C77.7514 213.097 78.0861 212.625 78.4065 212.125C78.7268 211.625 79.0376 211.166 79.346 210.686C79.6543 210.207 79.9484 209.719 80.2496 209.219C80.5508 208.719 80.8496 208.209 81.2106 207.685Z" fill="#7764A6"/>
<path d="M115.73 131.696C115.049 125.333 115.831 117.864 119.089 118.085C119.806 118.134 125.097 120.957 127.958 136.633C130.614 151.195 131.377 156.809 127.337 160.741C124.031 163.944 118.64 164.845 115.453 162.085C110.529 157.807 117.464 147.889 115.73 131.696Z" fill="white"/>
<path d="M74.5504 142.493C73.0133 135.248 68.2704 124.05 72.9129 114.881C74.7871 111.173 78.9013 110.132 85.265 110.686C89.0755 111.016 91.7506 108.808 96.3835 108.477C100.806 108.159 104.019 109.339 112.238 113.335C127.167 120.596 114.604 121.029 121.083 136.53C126.328 149.066 106.154 155.858 113.672 172.977C116.517 179.458 107.273 178.432 95.707 179.389C78.7722 180.769 72.5949 186.796 67.2424 181.936C64.7132 179.627 67.5939 171.887 70.5223 164.893C73.2715 158.333 76.6876 152.583 74.5504 142.493Z" fill="white"/>
<path d="M107.263 103.989C106.29 107.175 105.207 110.893 106.653 114.479C106.766 114.758 107.949 116.849 110.318 121.032C111.753 123.584 112.403 124.699 112.305 126.276C112.176 128.3 110.98 128.623 110.93 130.38C110.835 133.609 114.774 136.715 115.664 136.117C116.278 135.704 114.889 133.901 115.664 131.691C116.474 129.382 118.678 129.382 120.552 127.102C120.791 126.83 122.747 124.186 122.689 120.714C122.689 120.185 122.615 118.97 120.705 114.815C118.36 109.716 117.358 109.172 116.88 106.787C116.259 103.71 117.232 101.268 117.798 99.4112C118.551 96.9414 120.767 95.5641 120.524 92.9635C119.878 86.0388 118.1 77.9344 116.577 77.6189C115.396 77.3599 112.685 86.2363 107.263 103.989Z" fill="#1E1735"/>
<path d="M108.408 102.007C107.987 105.118 107.282 109.052 104.982 112.889C104.318 113.997 103.818 114.599 103.07 114.941C100.679 116.043 97.1151 113.915 95.5325 111.117C94.4663 109.221 94.4711 107.323 94.5763 104.941C95.009 94.6819 97.6027 89.5525 99.8355 88.1779C103.182 86.1261 106.869 88.3471 108.834 92.4404C109.51 93.8843 109.142 96.5926 108.408 102.007Z" fill="#EC7D40"/>
<path d="M93.1969 84.5667C92.0853 81.8712 89.2931 74.7439 96.0489 69.7504C100.113 66.7394 105.389 66.4163 109.558 68.3013C114.657 70.6096 116.73 75.4261 117.208 76.6751C118.683 80.4452 118.841 85.1386 117.81 87.6264C117.657 87.9931 117.165 88.7626 117.208 89.8808C117.509 97.4492 112.439 105.697 111.805 106.469C110.978 107.475 109.654 107.559 109.104 107.595C105.896 107.803 99.7806 104.366 97.8442 99.3881C96.6489 96.3541 98.0283 95.8463 96.7947 91.9787C95.6234 88.2727 95.0759 89.1191 93.1969 84.5667Z" fill="#F79556"/>
<path d="M102.224 86.9468C100.749 92.107 98.9821 91.6992 97.3015 94.9769C95.3891 98.7316 96.9525 102.007 95.6544 106.121C94.7891 108.862 92.4463 112.184 88.3226 112.512C83.6394 112.884 79.1786 108.024 76.8669 110.055C76.3123 110.542 75.8629 111.478 75.6453 111.365C75.4278 111.253 75.5808 109.839 76.1043 108.906C77.9379 105.628 79.1595 106.449 81.1437 104.646C83.7733 102.261 84.469 99.7421 84.6578 98.747C85.2913 95.4129 83.8928 94.3229 84.8108 90.881C85.6547 87.7136 88.1935 87.1494 88.3226 82.5227C88.6285 71.5432 95.8074 63.8413 107.416 65.8085C111.262 66.4599 112.95 67.9782 114.901 69.7427C118.248 72.7614 119.218 79.5707 119.331 82.1969C119.637 89.4063 121.621 88.9139 121.315 93.0123C120.999 97.2492 117.277 100.232 117.191 104.482C117.038 112.019 124.217 111.691 124.523 119.557C124.894 129.046 117.191 129.062 117.038 134.471C116.971 136.91 118.645 138.78 118.109 139.223C117.676 139.58 113.983 136.764 113.832 133.978C113.565 129.123 121.415 127.374 121.315 121.196C121.162 111.691 111.537 109.352 118.903 95.141C121.621 89.8988 117.856 89.5474 118.238 85.785C118.872 79.5733 115.054 79.4091 114.136 74.8208C113.863 73.4539 113.199 71.4457 113.275 73.6667C113.526 81.048 105.126 76.788 102.224 86.9468Z" fill="#1E1735"/>
<path d="M79.5922 104.756C79.9719 104.356 80.331 103.934 80.6679 103.492C81.0042 103.06 81.3095 102.601 81.5811 102.12C82.1264 101.189 82.5186 100.164 82.7405 99.0907C82.7907 98.8342 82.8194 98.5598 82.8577 98.2956C82.8959 98.0314 82.9031 97.7621 82.9007 97.498C82.9051 96.9619 82.866 96.4264 82.7836 95.8976C82.7047 95.3539 82.6019 94.7794 82.5445 94.1613C82.4844 93.5339 82.4949 92.901 82.5756 92.2762C82.5899 92.1172 82.6234 91.9659 82.6473 91.8095C82.6712 91.653 82.6999 91.4991 82.7382 91.3504L82.8433 90.899C82.884 90.7477 82.9366 90.5912 82.9844 90.4373C83.1866 89.8283 83.4614 89.2499 83.802 88.7164C84.1271 88.2035 84.4737 87.7264 84.7941 87.2879C85.0995 86.8851 85.3737 86.4562 85.614 86.0055C86.0604 85.1276 86.32 84.1545 86.3742 83.1561L86.4053 82.7637L86.4388 82.3175C86.4603 82.02 86.477 81.7225 86.5177 81.4249C86.575 80.8299 86.6683 80.2375 86.7567 79.6476C86.9766 78.4656 87.2918 77.3062 87.6986 76.1827C88.1136 75.0536 88.6342 73.9726 89.2525 72.9563C90.4927 70.9114 92.1683 69.2121 94.1412 67.9987C96.0907 66.822 98.2647 66.1379 100.498 65.9982C101.586 65.927 102.678 65.9588 103.761 66.0931C104.299 66.1778 104.834 66.2521 105.36 66.3752C105.886 66.4984 106.407 66.6317 106.924 66.7933C106.386 66.7625 105.857 66.6984 105.324 66.6958C104.791 66.6933 104.28 66.6651 103.751 66.6651C102.708 66.6982 101.669 66.8183 100.644 67.0241C98.6237 67.3974 96.697 68.2118 94.9827 69.417C93.3114 70.614 91.9054 72.1899 90.8637 74.0335C90.3402 74.9519 89.9007 75.9224 89.5513 76.9316C89.1933 77.9447 88.9174 78.9889 88.7265 80.0528C88.6333 80.5863 88.5449 81.1223 88.4875 81.666C88.4516 81.9225 88.4325 82.2072 88.411 82.4816L88.3775 82.8894L88.3345 83.351L88.2867 83.8178C88.2628 83.9743 88.2341 84.1333 88.2054 84.2897C88.1767 84.4462 88.1576 84.6026 88.1146 84.7591L87.9926 85.2258C87.9515 85.3835 87.902 85.5385 87.8444 85.6901C87.787 85.8414 87.7416 85.9978 87.6747 86.1466L87.4763 86.5877C87.4093 86.7365 87.3257 86.8698 87.2516 87.0109C86.9458 87.5406 86.6021 88.0439 86.2236 88.5164C85.8722 88.9652 85.5303 89.3756 85.2435 89.7987C84.9626 90.1934 84.7289 90.6242 84.5478 91.0811C84.5048 91.1965 84.457 91.3068 84.4163 91.4273L84.304 91.7992C84.2633 91.9249 84.2347 92.0557 84.206 92.1737C84.1773 92.2916 84.1414 92.4301 84.1247 92.5507C84.0267 93.0566 83.9818 93.5728 83.9908 94.0895C83.9908 94.6152 84.0506 95.1718 84.0817 95.7642C84.1226 96.3727 84.1122 96.9839 84.0506 97.5903C84.0219 97.8981 83.9621 98.1981 83.9071 98.4956C83.8522 98.7932 83.7781 99.083 83.6824 99.3753C82.9146 101.607 81.4753 103.5 79.5922 104.756Z" fill="#1E1735"/>
<path d="M70.3096 168.358C69.4155 165.432 79.2671 161.418 81.5046 162.324C83.0681 162.957 86.5248 166.981 89.4151 168.735C99.8619 175.08 102.324 171.862 103.321 176.883C104.251 181.564 100.261 182.41 85.7431 178.397C83.7303 177.843 71.4786 172.139 70.3096 168.358Z" fill="#F79556"/>
<path d="M82.786 132.321C81.4759 125.045 79.0662 109.639 73.8285 113.438C70.0203 116.197 60.6516 135.304 62.8127 147.564C62.937 150.023 63.4964 152.665 62.1959 155.737C61.682 156.953 60.5058 158.735 60.3432 160.818C60.14 163.401 61.2708 165.419 62.4015 167.445C63.9387 170.192 65.5547 173.087 68.5788 173.857C71.6865 174.649 74.823 173.693 74.756 173.195C74.6986 172.787 72.5065 172.398 72.0786 171.428C71.6674 170.5 73.3886 169.376 75.3728 166.127C77.2494 163.049 77.8399 162.598 78.8726 161.487C80.8305 159.389 83.6083 161.267 84.2275 161.267C84.9853 161.267 84.3327 159.156 84.2275 158.838C83.5772 156.873 81.5811 157.025 80.7253 155.304C80.5006 154.847 80.2472 154.057 80.9333 151.105C81.7078 147.738 81.8632 144.152 82.3676 142.711C83.3382 139.993 83.7039 137.451 82.786 132.321Z" fill="white"/>
<path d="M65.6958 171.21C65.7914 170.251 65.9349 169.312 66.0759 168.371C66.1508 167.899 66.2305 167.429 66.315 166.96L66.3819 166.612C66.401 166.496 66.4273 166.378 66.4608 166.245C66.4943 166.111 66.5253 165.988 66.566 165.865C66.6066 165.742 66.6425 165.609 66.6927 165.496C67.0669 164.572 67.5602 163.708 68.1581 162.931C68.7293 162.167 69.3517 161.449 70.0203 160.782C70.6809 160.119 71.3752 159.495 72.1001 158.915C72.4659 158.628 72.8317 158.343 73.2142 158.079C73.5985 157.798 73.9976 157.541 74.4094 157.309L74.5863 157.22C74.6486 157.189 74.7125 157.161 74.7776 157.138C74.8971 157.094 75.0166 157.055 75.1314 157.022C75.3618 156.955 75.5957 156.902 75.8318 156.863C76.2855 156.79 76.743 156.748 77.2016 156.735C78.0994 156.714 78.9976 156.753 79.891 156.85C79.0256 157.107 78.1507 157.297 77.3044 157.533C76.8789 157.645 76.4629 157.766 76.0661 157.91C75.8701 157.984 75.674 158.056 75.4924 158.145C75.4015 158.187 75.3131 158.233 75.227 158.281C75.1792 158.307 75.1505 158.328 75.117 158.348L75.0023 158.428C74.3377 158.923 73.6468 159.525 72.9894 160.118C72.332 160.71 71.6794 161.326 71.0507 161.957C70.422 162.588 69.8124 163.239 69.241 163.908C68.6743 164.56 68.172 165.272 67.7421 166.035C67.6415 166.218 67.5521 166.408 67.4744 166.604C67.4361 166.694 67.3979 166.804 67.3573 166.917L67.2377 167.248L66.7596 168.576C66.4345 169.461 66.0998 170.348 65.6958 171.21Z" fill="#A7D8D1"/>
<path d="M84.7821 161.287C84.7606 160.811 84.6627 160.343 84.4929 159.902C84.3674 159.46 84.1717 159.045 83.9144 158.674C83.3932 157.961 82.6187 157.543 81.8489 156.984C81.4421 156.691 81.0801 156.333 80.7755 155.922C80.6984 155.813 80.6266 155.7 80.5604 155.583L80.4671 155.417C80.4361 155.36 80.4026 155.288 80.3715 155.217C80.2615 154.934 80.2031 154.631 80.1994 154.324C80.1928 153.808 80.2329 153.293 80.3189 152.785C80.3907 152.295 80.4839 151.816 80.5771 151.341L81.1317 148.536C81.311 147.602 81.4807 146.668 81.6314 145.732C81.9469 143.865 82.2218 141.99 82.3485 140.118C82.4298 139.182 82.4681 138.249 82.4657 137.323C82.4699 136.41 82.4011 135.499 82.2601 134.599C81.9636 132.709 81.6242 130.837 81.2895 128.957C80.9548 127.077 80.5723 125.222 80.1086 123.381C79.6838 121.525 79.1062 119.713 78.3826 117.967C79.432 119.539 80.1588 121.339 80.8162 123.14C81.4736 124.94 81.9804 126.802 82.4394 128.672C82.8984 130.542 83.2856 132.422 83.6657 134.314C84.0506 136.317 84.0028 138.318 83.857 140.267C83.6788 142.204 83.4019 144.13 83.0274 146.035C82.6426 147.928 82.2147 149.808 81.715 151.652C81.5979 152.108 81.476 152.562 81.3851 153.016C81.2866 153.449 81.2187 153.888 81.1819 154.332C81.1651 154.504 81.1797 154.678 81.225 154.845C81.2372 154.887 81.2523 154.928 81.2704 154.968L81.3373 155.119C81.3803 155.212 81.4258 155.301 81.4784 155.391C81.7031 155.755 81.978 156.08 82.2935 156.355C82.6163 156.661 82.9772 156.95 83.3263 157.279C83.6905 157.606 84.0022 157.995 84.249 158.43C84.4743 158.87 84.6272 159.348 84.7009 159.843C84.8095 160.315 84.8371 160.805 84.7821 161.287Z" fill="#A7D8D1"/>
<path d="M114.174 69.3015C114.75 69.7477 115.275 70.2641 115.74 70.8403C116.205 71.4227 116.626 72.0445 116.997 72.6997C117.182 73.028 117.361 73.3614 117.528 73.7C117.696 74.0385 117.856 74.3848 117.994 74.7259C118.133 75.067 118.288 75.4286 118.415 75.7877C118.542 76.1467 118.673 76.5032 118.793 76.8648C118.912 77.2265 119.015 77.5958 119.125 77.9625C119.235 78.3293 119.326 78.7012 119.41 79.0756C119.592 79.8287 119.734 80.5926 119.835 81.3633C119.995 82.8164 120.284 84.2497 120.698 85.6438C120.908 86.3201 121.169 86.9771 121.477 87.6084L121.716 88.1213C121.798 88.3008 121.879 88.4676 121.956 88.6599C122.032 88.8523 122.111 89.0369 122.175 89.2421L122.278 89.5473L122.36 89.8602C122.414 90.0693 122.457 90.2817 122.489 90.4962C122.526 90.7056 122.551 90.9171 122.565 91.1297L122.594 91.4452V91.753C122.594 91.9607 122.613 92.1607 122.594 92.3762L122.551 93.0148C122.536 93.2251 122.491 93.4303 122.462 93.6406L122.412 93.9509C122.391 94.0535 122.364 94.1535 122.34 94.2535C122.29 94.4536 122.245 94.6588 122.19 94.8537C121.959 95.6164 121.679 96.361 121.353 97.0824C121.04 97.7826 120.715 98.4597 120.409 99.1342C120.108 99.7712 119.837 100.424 119.598 101.091C119.534 101.253 119.498 101.414 119.448 101.576C119.396 101.735 119.353 101.896 119.319 102.061L119.216 102.545L119.159 103.027C119.137 103.186 119.128 103.347 119.13 103.507C119.121 103.669 119.121 103.832 119.13 103.994L119.159 104.507L119.221 105.002C119.316 105.65 119.495 106.28 119.754 106.874C120.016 107.478 120.35 108.043 120.748 108.554C121.175 109.097 121.634 109.611 122.12 110.093C123.11 111.099 124.25 112.083 125.195 113.389C125.677 114.047 126.073 114.774 126.371 115.548C126.66 116.327 126.843 117.147 126.914 117.982C126.926 118.187 126.947 118.395 126.949 118.595V119.19C126.949 119.388 126.949 119.585 126.935 119.785C126.921 119.985 126.935 120.18 126.902 120.38C126.84 121.18 126.706 121.971 126.5 122.742C126.294 123.517 126.002 124.261 125.63 124.961C125.261 125.648 124.828 126.292 124.337 126.884C123.364 128.056 122.247 128.998 121.257 130.029C120.76 130.533 120.333 131.11 119.988 131.744C119.654 132.398 119.46 133.124 119.422 133.868C119.354 133.101 119.454 132.327 119.716 131.608C120.003 130.895 120.386 130.23 120.851 129.634C121.3 129.034 121.793 128.482 122.259 127.928C122.728 127.387 123.169 126.819 123.581 126.228C124.389 125.091 124.955 123.778 125.238 122.381C125.377 121.69 125.457 120.987 125.477 120.28C125.477 120.103 125.477 119.924 125.477 119.747C125.48 119.568 125.474 119.389 125.46 119.211L125.429 118.675C125.429 118.498 125.391 118.334 125.374 118.162C125.199 116.813 124.664 115.548 123.832 114.52C123.007 113.471 121.932 112.566 120.851 111.54C120.289 111.014 119.762 110.448 119.273 109.844C118.762 109.205 118.328 108.498 117.982 107.741C117.639 106.971 117.397 106.152 117.265 105.31L117.186 104.684C117.17 104.476 117.158 104.269 117.146 104.061C117.135 103.847 117.135 103.633 117.146 103.42C117.143 103.204 117.155 102.988 117.182 102.773L117.265 102.135L117.399 101.517C117.442 101.314 117.496 101.113 117.559 100.917C117.621 100.722 117.672 100.517 117.746 100.332L117.954 99.7651C118.028 99.5804 118.104 99.4009 118.193 99.2188C118.343 98.8546 118.508 98.511 118.671 98.1647C119.001 97.4799 119.328 96.8234 119.627 96.1694C119.921 95.5384 120.18 94.8893 120.402 94.2253C120.454 94.0638 120.492 93.9022 120.538 93.738L120.602 93.4944L120.648 93.2379C120.674 93.0763 120.717 92.9122 120.732 92.7506L120.777 92.2608C120.823 91.6008 120.784 90.9372 120.662 90.2885C120.495 89.6185 120.265 88.9688 119.974 88.3496C119.665 87.6276 119.409 86.8807 119.209 86.1157L119.13 85.8285L119.068 85.5387L118.943 84.9616C118.884 84.5743 118.807 84.1922 118.759 83.8049C118.712 83.4177 118.659 83.0355 118.628 82.6482L118.539 81.5018C118.49 80.7725 118.405 80.0465 118.284 79.3269C118.233 78.9628 118.157 78.6037 118.095 78.2395C118.033 77.8753 117.947 77.5163 117.856 77.1598C117.53 75.7184 117.078 74.3134 116.505 72.9639C116.216 72.2886 115.877 71.6394 115.491 71.0224C115.11 70.4006 114.669 69.8237 114.174 69.3015Z" fill="#1E1735"/>
<path d="M106.113 101.009C106.097 100.98 106.087 100.946 106.086 100.912C106.085 100.878 106.093 100.844 106.108 100.814C106.123 100.783 106.145 100.758 106.172 100.74C106.199 100.721 106.23 100.711 106.261 100.709C107.496 100.627 108.735 100.649 109.967 100.776C110.858 100.882 111.738 101.075 112.596 101.353C112.623 101.361 112.648 101.377 112.669 101.397C112.69 101.417 112.706 101.443 112.716 101.471C112.727 101.499 112.731 101.529 112.729 101.56C112.727 101.59 112.718 101.619 112.704 101.645C112.384 102.279 111.894 102.795 111.297 103.125C110.7 103.456 110.024 103.586 109.357 103.499C107.548 103.294 106.477 101.671 106.113 101.009Z" fill="#D65B5B"/>
<path d="M113.997 87.2878C114.131 86.9406 114.331 86.6277 114.585 86.3696C114.832 86.1076 115.115 85.8879 115.424 85.7182C116.051 85.3643 116.797 85.3643 117.48 85.4386C117.652 85.4535 117.823 85.48 117.992 85.5181L118.243 85.5746C118.331 85.5976 118.422 85.631 118.511 85.6592C118.841 85.7987 119.145 85.9982 119.412 86.2491C119.872 86.7341 120.28 87.2735 120.626 87.8572L120.548 87.9546C120.28 87.7494 120.055 87.5161 119.814 87.3109C119.582 87.105 119.333 86.9246 119.068 86.7723C118.829 86.6246 118.567 86.5247 118.296 86.4773L118.104 86.4543H117.892C117.751 86.4453 117.609 86.4453 117.468 86.4543C117.329 86.4682 117.19 86.4913 117.052 86.5235C116.916 86.5671 116.782 86.5979 116.651 86.6543C116.388 86.7441 116.13 86.8364 115.857 86.9108L115.013 87.1442C114.722 87.2288 114.418 87.3134 114.074 87.3878L113.997 87.2878Z" fill="#1E1735"/>
<path d="M100.883 85.0925C101.534 84.5862 102.262 84.2037 103.034 83.9615C103.841 83.709 104.686 83.6306 105.52 83.7306C105.736 83.7486 105.943 83.7973 106.161 83.8255C106.379 83.8537 106.587 83.9204 106.802 83.9743C107.226 84.1004 107.62 84.3196 107.961 84.618C108.657 85.1979 109.124 86.0375 109.269 86.9698L109.144 87.0673C108.351 86.6774 107.739 86.3133 107.117 86.0004C106.809 85.8439 106.52 85.6747 106.226 85.4874C106.077 85.4028 105.927 85.3105 105.771 85.231C105.615 85.1551 105.456 85.0883 105.293 85.0309C104.956 84.9223 104.609 84.8501 104.258 84.8155C103.897 84.7675 103.533 84.7555 103.17 84.7796C102.415 84.8155 101.669 84.9711 100.957 85.2412L100.883 85.0925Z" fill="#1E1735"/>
<path d="M103.603 89.3575C103.603 89.5755 104.249 90.2039 106.082 90.1269C106.897 90.091 107.703 89.8346 107.684 89.3986C107.665 88.9626 107.115 88.2368 106.412 88.1419C105.186 87.9726 103.586 88.9215 103.603 89.3575Z" fill="#E6E6E6"/>
<path d="M105.002 88.801C105.42 87.6469 107.342 88.0316 106.964 89.5987C106.586 91.1657 104.33 90.6553 105.002 88.801Z" fill="#1E1735"/>
<path d="M107.88 89.7115C107.695 89.5024 107.479 89.3288 107.239 89.1986C107.037 89.0962 106.817 89.0403 106.594 89.0344C106.111 89.0389 105.631 89.0973 105.159 89.2089C104.618 89.3292 104.069 89.4098 103.517 89.4499C103.211 89.469 102.905 89.4414 102.606 89.3679C102.447 89.3261 102.296 89.2559 102.159 89.1601C102.024 89.0643 101.922 88.9238 101.868 88.76C101.99 88.8215 102.124 88.8513 102.26 88.8472C102.383 88.8401 102.506 88.8186 102.625 88.7831C102.864 88.7164 103.103 88.6241 103.362 88.5266C103.882 88.3175 104.416 88.1537 104.961 88.0368C105.573 87.8912 106.209 87.9222 106.806 88.1266C107.129 88.2493 107.41 88.4715 107.614 88.7652C107.796 89.0415 107.889 89.3736 107.88 89.7115Z" fill="#1E1735"/>
<path d="M114.315 90.3527C114.315 90.5502 114.812 91.1221 116.213 91.0529C116.835 91.0247 117.124 90.681 117.11 90.2834C117.095 89.8859 116.993 89.355 116.455 89.2575C115.513 89.119 114.299 89.9603 114.315 90.3527Z" fill="#E6E6E6"/>
<path d="M115.465 89.9295C115.819 88.9575 117.435 89.2858 117.117 90.6015C116.799 91.9172 114.903 91.494 115.465 89.9295Z" fill="#1E1735"/>
<path d="M118.037 90.4373C117.855 90.3168 117.666 90.2064 117.473 90.1065C117.315 90.0297 117.146 89.9812 116.974 89.9629C116.642 89.9567 116.312 90.0203 116.003 90.1501C115.604 90.305 115.195 90.4267 114.779 90.5143C114.533 90.5597 114.281 90.5528 114.038 90.4937C113.913 90.4648 113.797 90.4066 113.696 90.3232C113.595 90.2398 113.512 90.1334 113.455 90.0116C113.651 90.0597 113.856 90.0454 114.045 89.9705C114.219 89.8999 114.387 89.8141 114.547 89.7141C114.914 89.4817 115.301 89.2876 115.702 89.1344C115.934 89.0521 116.175 89.0055 116.419 88.996C116.691 88.9853 116.962 89.0452 117.208 89.1704C117.443 89.2949 117.644 89.4843 117.789 89.7192C117.922 89.9351 118.007 90.1808 118.037 90.4373Z" fill="#1E1735"/>
<path d="M166.509 273.834C167.076 273.41 167.663 273.018 168.268 272.66L169.98 271.616C170.544 271.272 171.106 270.928 171.653 270.567C172.239 270.209 172.799 269.802 173.327 269.351C173.278 269.746 173.155 270.126 172.963 270.467C172.777 270.803 172.558 271.117 172.308 271.403C171.814 271.965 171.242 272.442 170.613 272.819C169.994 273.195 169.329 273.48 168.639 273.665C167.944 273.858 167.222 273.915 166.509 273.834Z" fill="#CBBEED"/>
<path d="M92.8623 173.026C93.7587 172.108 95.0138 172.18 95.7931 172.298C100.543 173.031 101.574 173.016 103.051 172.423C103.811 172.121 106.202 170.997 107.516 171.102C110.356 171.328 121.382 176.66 121.499 178.101C121.499 178.101 121.583 179.248 121.133 179.453C121.071 179.477 121.011 179.504 120.952 179.535C120.696 179.745 121.219 180.212 120.822 180.712C120.66 180.915 120.402 180.969 119.974 181.015C119.106 181.11 118.415 180.848 117.798 180.966C117.347 181.053 117.284 181.248 116.754 181.52C116.754 181.52 116.216 181.979 115.042 181.9C114.712 181.877 114.325 181.92 111.901 180.533C109.407 179.112 105.222 178.299 105.238 178.532C105.255 178.766 109.907 180.002 111.055 180.841C111.147 180.921 111.22 181.025 111.267 181.142C111.313 181.26 111.332 181.388 111.322 181.515C111.263 181.954 110.921 181.99 110.493 182.064C109.259 182.282 106.304 181.405 103.233 180.802C101.645 180.533 100.036 180.434 98.4299 180.507C90.6032 180.748 88.7409 177.245 92.8623 173.026Z" fill="#F79556"/>
<path d="M117.574 180.861C117.621 180.857 117.667 180.841 117.709 180.815C117.75 180.79 117.785 180.754 117.813 180.712C117.86 180.638 117.877 180.546 117.861 180.458C117.846 180.37 117.798 180.291 117.729 180.24C116.778 179.531 115.776 178.905 114.731 178.368C112.783 177.342 109.979 176.317 107.971 175.655C107.931 175.641 107.889 175.636 107.848 175.64C107.806 175.644 107.766 175.657 107.729 175.678C107.692 175.698 107.659 175.727 107.633 175.761C107.606 175.796 107.586 175.835 107.574 175.878C107.55 175.964 107.558 176.057 107.597 176.136C107.636 176.216 107.702 176.276 107.782 176.304C109.771 176.965 112.539 177.971 114.452 178.979C115.471 179.498 116.45 180.105 117.378 180.794C117.434 180.84 117.503 180.863 117.574 180.861Z" fill="#F79556"/>
<path d="M119.897 179.887C119.96 179.881 120.021 179.856 120.07 179.813C120.12 179.771 120.156 179.713 120.175 179.648C120.193 179.583 120.193 179.514 120.174 179.449C120.156 179.384 120.119 179.326 120.069 179.284C119.174 178.496 118.221 177.787 117.22 177.163C115.353 175.973 112.632 174.721 110.682 173.883C110.605 173.855 110.521 173.859 110.447 173.895C110.373 173.931 110.315 173.996 110.285 174.077C110.254 174.158 110.253 174.248 110.283 174.329C110.312 174.41 110.369 174.476 110.442 174.513C112.374 175.344 115.061 176.565 116.897 177.748C117.873 178.351 118.802 179.037 119.675 179.799C119.705 179.829 119.74 179.852 119.778 179.867C119.816 179.882 119.857 179.889 119.897 179.887Z" fill="#F79556"/>
<path d="M81.5189 182.554H135.139V179.845H82.7142C82.346 179.845 81.0671 181.659 81.0671 181.659C81.0045 181.742 80.9659 181.843 80.956 181.949C80.946 182.055 80.9652 182.162 81.0111 182.257C81.0571 182.352 81.1278 182.43 81.2146 182.482C81.3014 182.535 81.4005 182.559 81.4998 182.551L81.5189 182.554Z" fill="#E30613"/>
<path d="M113.156 182.241H155.627C156.499 182.241 157.348 181.935 158.044 181.37C158.739 180.804 159.244 180.011 159.48 179.11L169.521 140.859C169.599 140.563 169.612 140.251 169.558 139.949C169.505 139.646 169.387 139.361 169.214 139.115C169.041 138.87 168.817 138.671 168.56 138.534C168.303 138.397 168.02 138.325 167.733 138.326H124.769C123.889 138.325 123.033 138.634 122.331 139.204C121.63 139.774 121.121 140.574 120.882 141.483L110.997 179.184C110.904 179.542 110.889 179.917 110.954 180.282C111.018 180.647 111.161 180.991 111.37 181.287C111.579 181.583 111.849 181.823 112.158 181.989C112.468 182.154 112.81 182.241 113.156 182.241Z" fill="#1E1735"/>
<path d="M113.168 182.554H155.789C156.652 182.554 157.492 182.251 158.179 181.692C158.867 181.133 159.365 180.347 159.597 179.456L169.566 141.439C169.623 141.229 169.633 141.009 169.596 140.794C169.559 140.579 169.476 140.377 169.353 140.203C169.231 140.029 169.072 139.887 168.89 139.79C168.708 139.693 168.507 139.643 168.304 139.644H125.682C124.82 139.643 123.981 139.946 123.293 140.505C122.606 141.064 122.107 141.848 121.874 142.739L111.906 180.756C111.849 180.966 111.839 181.187 111.876 181.401C111.913 181.616 111.996 181.819 112.118 181.993C112.241 182.167 112.399 182.309 112.581 182.406C112.764 182.503 112.964 182.554 113.168 182.554Z" fill="#E30613"/>
<path d="M362.206 243.225H294.988V308.471H362.206V243.225Z" fill="#1E1735"/>
<path d="M403.414 308.471H253.776C253.776 304.372 255.294 300.442 257.995 297.543C260.696 294.645 264.36 293.016 268.18 293.016H389.011C390.903 293.016 392.776 293.416 394.524 294.192C396.271 294.969 397.859 296.107 399.197 297.543C400.534 298.978 401.595 300.681 402.319 302.557C403.042 304.432 403.415 306.441 403.414 308.471Z" fill="#224A3C"/>
<path d="M461.701 0.700775H195.492C186.361 0.700775 178.959 8.64212 178.959 18.4383V244.802C178.959 254.598 186.361 262.539 195.492 262.539H461.701C470.832 262.539 478.235 254.598 478.235 244.802V18.4383C478.235 8.64212 470.832 0.700775 461.701 0.700775Z" fill="#297057"/>
<path d="M465.651 1.02402H191.543C189.89 1.02368 188.254 1.37257 186.727 2.05076C185.2 2.72895 183.813 3.72315 182.645 4.9766C181.476 6.23004 180.549 7.71816 179.917 9.35599C179.284 10.9938 178.959 12.7493 178.959 14.5221V212.64H478.235V14.5221C478.235 12.7493 477.909 10.9938 477.277 9.35599C476.644 7.71816 475.717 6.23004 474.549 4.9766C473.38 3.72315 471.993 2.72895 470.466 2.05076C468.939 1.37257 467.303 1.02368 465.651 1.02402Z" fill="#224A3C"/>
<path d="M467.03 13.7296H190.161V199.163H467.03V13.7296Z" fill="white"/>
<path d="M335.953 244.249C340.016 239.89 340.016 232.823 335.953 228.464C331.89 224.105 325.303 224.105 321.24 228.464C317.177 232.823 317.177 239.89 321.24 244.249C325.303 248.608 331.89 248.608 335.953 244.249Z" fill="#E1D7F7"/>
<path d="M334.073 89.6649C334.152 88.6415 333.442 87.7432 332.488 87.6585C331.535 87.5739 330.697 88.3349 330.618 89.3583C330.539 90.3817 331.249 91.28 332.203 91.3647C333.157 91.4494 333.994 90.6884 334.073 89.6649Z" fill="#76C5A9"/>
<path d="M341.213 89.9321C341.433 88.9326 340.856 87.9312 339.924 87.6953C338.993 87.4594 338.059 88.0784 337.839 89.0778C337.619 90.0773 338.196 91.0788 339.128 91.3147C340.06 91.5506 340.993 90.9316 341.213 89.9321Z" fill="#76C5A9"/>
<path d="M348.452 89.8209C348.606 88.8072 347.964 87.8521 347.019 87.6875C346.075 87.523 345.184 88.2114 345.031 89.225C344.878 90.2387 345.519 91.1938 346.464 91.3584C347.409 91.5229 348.299 90.8345 348.452 89.8209Z" fill="#76C5A9"/>
<path d="M348.376 82.5303H264.228C263.777 82.5124 263.351 82.3077 263.038 81.9593C262.725 81.6108 262.55 81.1458 262.55 80.6619C262.55 80.178 262.725 79.713 263.038 79.3645C263.351 79.0161 263.777 78.8114 264.228 78.7935H348.376C348.827 78.8114 349.254 79.0161 349.567 79.3645C349.88 79.713 350.054 80.178 350.054 80.6619C350.054 81.1458 349.88 81.6108 349.567 81.9593C349.254 82.3077 348.827 82.5124 348.376 82.5303Z" fill="#76C5A9"/>
<path d="M348.376 73.423H264.228C263.777 73.4051 263.351 73.2004 263.038 72.852C262.725 72.5035 262.55 72.0385 262.55 71.5546C262.55 71.0707 262.725 70.6057 263.038 70.2573C263.351 69.9089 263.777 69.7042 264.228 69.6862H348.376C348.827 69.7042 349.254 69.9089 349.567 70.2573C349.88 70.6057 350.054 71.0707 350.054 71.5546C350.054 72.0385 349.88 72.5035 349.567 72.852C349.254 73.2004 348.827 73.4051 348.376 73.423Z" fill="#76C5A9"/>
<path d="M325.496 91.394H264.228C263.777 91.376 263.351 91.1714 263.038 90.8229C262.725 90.4745 262.55 90.0094 262.55 89.5256C262.55 89.0417 262.725 88.5766 263.038 88.2282C263.351 87.8798 263.777 87.6751 264.228 87.6572H325.496C325.947 87.6751 326.373 87.8798 326.686 88.2282C326.999 88.5766 327.174 89.0417 327.174 89.5256C327.174 90.0094 326.999 90.4745 326.686 90.8229C326.373 91.1714 325.947 91.376 325.496 91.394Z" fill="#76C5A9"/>
<path d="M334.028 184.008C334.248 183.009 333.671 182.007 332.74 181.771C331.808 181.536 330.874 182.155 330.655 183.154C330.435 184.153 331.012 185.155 331.943 185.391C332.875 185.627 333.808 185.008 334.028 184.008Z" fill="#76C5A9"/>
<path d="M339.931 185.422C340.863 185.186 341.44 184.184 341.22 183.185C341 182.186 340.066 181.567 339.135 181.802C338.203 182.038 337.626 183.04 337.846 184.039C338.066 185.039 338.999 185.658 339.931 185.422Z" fill="#76C5A9"/>
<path d="M347.39 185.312C348.274 184.919 348.694 183.831 348.328 182.882C347.961 181.933 346.948 181.483 346.063 181.876C345.179 182.269 344.759 183.357 345.125 184.305C345.491 185.254 346.505 185.705 347.39 185.312Z" fill="#76C5A9"/>
<path d="M348.376 158.71H282.382C281.931 158.692 281.505 158.487 281.192 158.139C280.879 157.79 280.704 157.325 280.704 156.841C280.704 156.357 280.879 155.892 281.192 155.544C281.505 155.196 281.931 154.991 282.382 154.973H348.376C348.827 154.991 349.254 155.196 349.567 155.544C349.88 155.892 350.054 156.357 350.054 156.841C350.054 157.325 349.88 157.79 349.567 158.139C349.254 158.487 348.827 158.692 348.376 158.71Z" fill="#76C5A9"/>
<path d="M348.376 167.63H264.228C263.767 167.63 263.324 167.433 262.997 167.083C262.671 166.733 262.488 166.258 262.488 165.763C262.488 165.268 262.671 164.793 262.997 164.442C263.324 164.092 263.767 163.896 264.228 163.896H348.376C348.838 163.896 349.28 164.092 349.607 164.442C349.933 164.793 350.117 165.268 350.117 165.763C350.117 166.258 349.933 166.733 349.607 167.083C349.28 167.433 348.838 167.63 348.376 167.63Z" fill="#76C5A9"/>
<path d="M348.376 176.552H264.228C263.777 176.534 263.351 176.33 263.038 175.981C262.725 175.633 262.55 175.168 262.55 174.684C262.55 174.2 262.725 173.735 263.038 173.387C263.351 173.038 263.777 172.834 264.228 172.816H348.376C348.827 172.834 349.254 173.038 349.567 173.387C349.88 173.735 350.054 174.2 350.054 174.684C350.054 175.168 349.88 175.633 349.567 175.981C349.254 176.33 348.827 176.534 348.376 176.552Z" fill="#76C5A9"/>
<path d="M325.496 185.472H264.228C263.767 185.472 263.324 185.276 262.997 184.926C262.671 184.575 262.488 184.101 262.488 183.605C262.488 183.11 262.671 182.635 262.997 182.285C263.324 181.935 263.767 181.738 264.228 181.738H325.496C325.958 181.738 326.4 181.935 326.727 182.285C327.053 182.635 327.236 183.11 327.236 183.605C327.236 184.101 327.053 184.575 326.727 184.926C326.4 185.276 325.958 185.472 325.496 185.472Z" fill="#76C5A9"/>
<path d="M252.89 61.6177H224.028C223.648 61.6177 223.283 61.4555 223.014 61.167C222.745 60.8784 222.594 60.487 222.594 60.0788V29.1203C222.594 28.7122 222.745 28.3208 223.014 28.0322C223.283 27.7436 223.648 27.5815 224.028 27.5815H252.89C253.27 27.5815 253.635 27.7436 253.904 28.0322C254.173 28.3208 254.324 28.7122 254.324 29.1203V60.084C254.323 60.4912 254.171 60.8813 253.902 61.1688C253.633 61.4563 253.269 61.6177 252.89 61.6177ZM225.458 58.54H251.462V30.6514H225.458V58.54Z" fill="#76C5A9"/>
<path d="M253.047 103.717H224.186C223.806 103.717 223.441 103.555 223.172 103.267C222.903 102.978 222.752 102.587 222.752 102.179V71.22C222.752 70.8119 222.903 70.4204 223.172 70.1319C223.441 69.8433 223.806 69.6812 224.186 69.6812H253.047C253.428 69.6812 253.793 69.8433 254.062 70.1319C254.331 70.4204 254.482 70.8119 254.482 71.22V102.184C254.48 102.591 254.329 102.981 254.06 103.268C253.791 103.556 253.427 103.717 253.047 103.717ZM225.613 100.64H251.618V72.7537H225.613V100.64Z" fill="#76C5A9"/>
<path d="M253.014 146.563H224.15C223.77 146.563 223.405 146.401 223.136 146.113C222.867 145.824 222.716 145.433 222.716 145.024V114.066C222.716 113.658 222.867 113.266 223.136 112.978C223.405 112.689 223.77 112.527 224.15 112.527H253.014C253.394 112.527 253.759 112.689 254.028 112.978C254.297 113.266 254.448 113.658 254.448 114.066V145.03C254.447 145.437 254.295 145.827 254.026 146.114C253.758 146.402 253.394 146.563 253.014 146.563ZM225.58 143.498H251.584V115.6H225.58V143.498Z" fill="#76C5A9"/>
<path d="M253.014 189.001H224.15C223.77 189.001 223.405 188.839 223.136 188.551C222.867 188.262 222.716 187.871 222.716 187.463V156.507C222.716 156.099 222.867 155.707 223.136 155.419C223.405 155.13 223.77 154.968 224.15 154.968H253.014C253.394 154.968 253.759 155.13 254.028 155.419C254.297 155.707 254.448 156.099 254.448 156.507V187.463C254.448 187.871 254.297 188.262 254.028 188.551C253.759 188.839 253.394 189.001 253.014 189.001ZM225.58 185.924H251.584V158.04H225.58V185.924Z" fill="#76C5A9"/>
<path d="M238.302 53.7056C238.068 53.706 237.835 53.6566 237.619 53.5602C237.402 53.4638 237.205 53.3223 237.04 53.144L227.499 42.9108C227.164 42.5513 226.976 42.0637 226.976 41.5553C226.976 41.0469 227.164 40.5594 227.499 40.1999C227.834 39.8404 228.289 39.6384 228.763 39.6384C229.237 39.6384 229.691 39.8404 230.026 40.1999L238.302 49.0789L246.578 40.1999C246.918 39.8657 247.365 39.6853 247.825 39.6963C248.286 39.7073 248.725 39.9089 249.05 40.2589C249.375 40.6089 249.562 41.0803 249.571 41.5745C249.58 42.0687 249.411 42.5475 249.098 42.9108L239.56 53.144C239.227 53.5025 238.774 53.7045 238.302 53.7056Z" fill="#3A4A1D"/>
<path d="M238.302 94.2536C237.829 94.2533 237.375 94.0513 237.04 93.6919L227.499 83.4588C227.164 83.0993 226.976 82.6117 226.976 82.1033C226.976 81.5949 227.164 81.1074 227.499 80.7479C227.834 80.3884 228.289 80.1864 228.763 80.1864C229.237 80.1864 229.691 80.3884 230.026 80.7479L238.302 89.6269L246.578 80.7479C246.918 80.4137 247.365 80.2333 247.825 80.2443C248.286 80.2553 248.725 80.4569 249.05 80.8069C249.375 81.1569 249.562 81.6283 249.571 82.1225C249.58 82.6167 249.411 83.0955 249.098 83.4588L239.56 93.6919C239.226 94.0496 238.774 94.2514 238.302 94.2536Z" fill="#3A4A1D"/>
<path d="M238.302 181.61C237.829 181.61 237.375 181.408 237.04 181.048L227.499 170.813C227.164 170.453 226.976 169.966 226.976 169.457C226.976 168.949 227.164 168.461 227.499 168.102C227.834 167.742 228.289 167.54 228.763 167.54C229.237 167.54 229.691 167.742 230.026 168.102L238.302 176.981L246.578 168.102C246.918 167.768 247.365 167.587 247.825 167.598C248.286 167.609 248.725 167.811 249.05 168.161C249.375 168.511 249.562 168.982 249.571 169.476C249.58 169.971 249.411 170.449 249.098 170.813L239.567 181.051C239.231 181.41 238.776 181.611 238.302 181.61Z" fill="#3A4A1D"/>
<path d="M332.352 49.0866C333.309 49.0866 334.085 48.2541 334.085 47.2271C334.085 46.2002 333.309 45.3677 332.352 45.3677C331.395 45.3677 330.619 46.2002 330.619 47.2271C330.619 48.2541 331.395 49.0866 332.352 49.0866Z" fill="#76C5A9"/>
<path d="M339.538 49.0866C340.496 49.0866 341.271 48.2541 341.271 47.2271C341.271 46.2002 340.496 45.3677 339.538 45.3677C338.581 45.3677 337.805 46.2002 337.805 47.2271C337.805 48.2541 338.581 49.0866 339.538 49.0866Z" fill="#76C5A9"/>
<path d="M346.727 49.0866C347.684 49.0866 348.46 48.2541 348.46 47.2271C348.46 46.2002 347.684 45.3677 346.727 45.3677C345.77 45.3677 344.994 46.2002 344.994 47.2271C344.994 48.2541 345.77 49.0866 346.727 49.0866Z" fill="#76C5A9"/>
<path d="M348.376 31.3208H282.382C281.921 31.3208 281.478 31.1241 281.151 30.774C280.825 30.4238 280.642 29.9489 280.642 29.4537C280.642 28.9585 280.825 28.4836 281.151 28.1335C281.478 27.7833 281.921 27.5866 282.382 27.5866H348.376C348.838 27.5866 349.28 27.7833 349.607 28.1335C349.933 28.4836 350.117 28.9585 350.117 29.4537C350.117 29.9489 349.933 30.4238 349.607 30.774C349.28 31.1241 348.838 31.3208 348.376 31.3208Z" fill="#76C5A9"/>
<path d="M348.376 40.2486H264.228C263.777 40.2307 263.351 40.026 263.038 39.6776C262.725 39.3292 262.55 38.8641 262.55 38.3802C262.55 37.8964 262.725 37.4313 263.038 37.0829C263.351 36.7344 263.777 36.5298 264.228 36.5118H348.376C348.827 36.5298 349.254 36.7344 349.567 37.0829C349.88 37.4313 350.054 37.8964 350.054 38.3802C350.054 38.8641 349.88 39.3292 349.567 39.6776C349.254 40.026 348.827 40.2307 348.376 40.2486Z" fill="#76C5A9"/>
<path d="M325.496 49.1071H264.228C263.777 49.0892 263.351 48.8845 263.038 48.536C262.725 48.1876 262.55 47.7226 262.55 47.2387C262.55 46.7548 262.725 46.2898 263.038 45.9413C263.351 45.5929 263.777 45.3882 264.228 45.3703H325.496C325.947 45.3882 326.373 45.5929 326.686 45.9413C326.999 46.2898 327.174 46.7548 327.174 47.2387C327.174 47.7226 326.999 48.1876 326.686 48.536C326.373 48.8845 325.947 49.0892 325.496 49.1071Z" fill="#76C5A9"/>
<path d="M334.029 132.59C334.248 131.59 333.671 130.589 332.74 130.353C331.808 130.117 330.875 130.736 330.655 131.736C330.435 132.735 331.012 133.737 331.944 133.972C332.875 134.208 333.809 133.589 334.029 132.59Z" fill="#76C5A9"/>
<path d="M339.932 134.002C340.864 133.767 341.441 132.765 341.221 131.766C341.001 130.766 340.068 130.147 339.136 130.383C338.205 130.619 337.628 131.62 337.848 132.62C338.067 133.619 339.001 134.238 339.932 134.002Z" fill="#76C5A9"/>
<path d="M347.391 133.892C348.276 133.499 348.696 132.412 348.329 131.463C347.963 130.514 346.949 130.063 346.065 130.456C345.18 130.849 344.76 131.937 345.127 132.886C345.493 133.835 346.507 134.285 347.391 133.892Z" fill="#76C5A9"/>
<path d="M348.376 116.269H282.382C281.931 116.251 281.505 116.046 281.192 115.698C280.879 115.35 280.704 114.884 280.704 114.401C280.704 113.917 280.879 113.452 281.192 113.103C281.505 112.755 281.931 112.55 282.382 112.532H348.376C348.827 112.55 349.254 112.755 349.567 113.103C349.88 113.452 350.054 113.917 350.054 114.401C350.054 114.884 349.88 115.35 349.567 115.698C349.254 116.046 348.827 116.251 348.376 116.269Z" fill="#76C5A9"/>
<path d="M348.376 125.189H264.228C264 125.189 263.773 125.141 263.562 125.047C263.351 124.953 263.159 124.816 262.997 124.642C262.836 124.469 262.708 124.263 262.62 124.036C262.533 123.81 262.488 123.567 262.488 123.322C262.488 123.077 262.533 122.834 262.62 122.607C262.708 122.381 262.836 122.175 262.997 122.002C263.159 121.828 263.351 121.691 263.562 121.597C263.773 121.503 264 121.455 264.228 121.455H348.376C348.838 121.455 349.28 121.652 349.607 122.002C349.933 122.352 350.117 122.827 350.117 123.322C350.117 123.817 349.933 124.292 349.607 124.642C349.28 124.992 348.838 125.189 348.376 125.189Z" fill="#76C5A9"/>
<path d="M325.496 134.053H264.228C263.767 134.053 263.324 133.856 262.997 133.506C262.671 133.156 262.488 132.681 262.488 132.186C262.488 131.69 262.671 131.216 262.997 130.865C263.324 130.515 263.767 130.319 264.228 130.319H325.496C325.958 130.319 326.4 130.515 326.727 130.865C327.053 131.216 327.236 131.69 327.236 132.186C327.236 132.681 327.053 133.156 326.727 133.506C326.4 133.856 325.958 134.053 325.496 134.053Z" fill="#76C5A9"/>
<path d="M241.085 129.785L249.304 120.968C249.469 120.791 249.599 120.581 249.688 120.35C249.778 120.119 249.824 119.871 249.824 119.621C249.824 119.371 249.778 119.123 249.688 118.892C249.599 118.661 249.469 118.451 249.304 118.275C249.139 118.098 248.943 117.958 248.728 117.862C248.513 117.766 248.282 117.717 248.049 117.717C247.816 117.717 247.585 117.766 247.369 117.862C247.154 117.958 246.958 118.098 246.794 118.275L238.63 127.036L230.464 118.275C230.131 117.918 229.679 117.717 229.209 117.717C228.738 117.717 228.286 117.918 227.954 118.275C227.621 118.632 227.434 119.116 227.434 119.621C227.434 120.126 227.621 120.61 227.954 120.968L236.172 129.785L227.954 138.6C227.621 138.957 227.434 139.441 227.434 139.946C227.434 140.451 227.621 140.936 227.954 141.293C228.286 141.65 228.738 141.851 229.209 141.851C229.679 141.851 230.131 141.65 230.464 141.293L238.63 132.532L246.794 141.298C247.126 141.655 247.578 141.856 248.049 141.856C248.519 141.856 248.971 141.655 249.304 141.298C249.637 140.941 249.824 140.457 249.824 139.951C249.824 139.446 249.637 138.962 249.304 138.605L241.085 129.785Z" fill="#E30613"/>
<path d="M395.678 27.5866H361.338C360.26 27.5866 359.226 28.046 358.464 28.8636C357.702 29.6813 357.274 30.7903 357.274 31.9466V49.2507C357.274 50.407 357.702 51.516 358.464 52.3337C359.226 53.1513 360.26 53.6107 361.338 53.6107H386.422L391.048 58.1451V53.6004H395.678C396.756 53.6004 397.79 53.1411 398.552 52.3234C399.314 51.5057 399.742 50.3968 399.742 49.2404V31.9363C399.74 30.7818 399.311 29.6754 398.549 28.86C397.787 28.0446 396.755 27.5866 395.678 27.5866Z" fill="#76C5A9"/>
<path d="M385.801 47.8401C385.801 48.03 385.749 48.2158 385.651 48.3739C385.553 48.5321 385.413 48.6554 385.25 48.7283C385.086 48.8013 384.906 48.8205 384.733 48.7835C384.559 48.7466 384.4 48.6552 384.274 48.5209C384.149 48.3866 384.064 48.2155 384.03 48.0292C383.995 47.8429 384.013 47.6498 384.081 47.4744C384.149 47.299 384.264 47.1492 384.411 47.044C384.559 46.9388 384.732 46.8829 384.909 46.8835C385.145 46.8841 385.372 46.9851 385.539 47.1644C385.706 47.3436 385.8 47.5866 385.801 47.8401Z" fill="white"/>
<path d="M389.504 47.8401C389.504 48.03 389.452 48.2158 389.354 48.3739C389.256 48.5321 389.116 48.6554 388.953 48.7283C388.789 48.8013 388.609 48.8205 388.436 48.7835C388.262 48.7466 388.103 48.6552 387.977 48.5209C387.852 48.3866 387.767 48.2155 387.733 48.0292C387.698 47.8429 387.716 47.6498 387.784 47.4744C387.852 47.299 387.967 47.1492 388.114 47.044C388.262 46.9388 388.435 46.8829 388.612 46.8835C388.848 46.8841 389.075 46.9851 389.242 47.1644C389.409 47.3436 389.503 47.5866 389.504 47.8401Z" fill="white"/>
<path d="M393.207 47.8401C393.207 48.0299 393.155 48.2156 393.057 48.3737C392.959 48.5318 392.82 48.6551 392.656 48.7281C392.493 48.8011 392.313 48.8205 392.14 48.7837C391.966 48.747 391.806 48.6559 391.681 48.5218C391.556 48.3878 391.471 48.2169 391.436 48.0307C391.401 47.8446 391.419 47.6516 391.486 47.4762C391.554 47.3008 391.668 47.1508 391.816 47.0453C391.963 46.9398 392.136 46.8835 392.313 46.8835C392.549 46.8835 392.776 46.9842 392.944 47.1635C393.112 47.3428 393.206 47.5861 393.207 47.8401Z" fill="white"/>
<path d="M393.164 35.0217H372.605C372.367 35.0217 372.139 34.9204 371.971 34.74C371.803 34.5596 371.708 34.315 371.708 34.0599C371.708 33.8048 371.803 33.5602 371.971 33.3798C372.139 33.1995 372.367 33.0981 372.605 33.0981H393.164C393.401 33.0981 393.629 33.1995 393.798 33.3798C393.966 33.5602 394.06 33.8048 394.06 34.0599C394.06 34.315 393.966 34.5596 393.798 34.74C393.629 34.9204 393.401 35.0217 393.164 35.0217Z" fill="white"/>
<path d="M393.164 39.6176H363.243C363.013 39.6049 362.796 39.4978 362.638 39.3186C362.479 39.1394 362.391 38.9017 362.391 38.6546C362.391 38.4074 362.479 38.1697 362.638 37.9905C362.796 37.8113 363.013 37.7043 363.243 37.6915H393.164C393.394 37.7043 393.61 37.8113 393.769 37.9905C393.928 38.1697 394.016 38.4074 394.016 38.6546C394.016 38.9017 393.928 39.1394 393.769 39.3186C393.61 39.4978 393.394 39.6049 393.164 39.6176Z" fill="white"/>
<path d="M393.164 44.2136H363.243C363.013 44.2009 362.796 44.0939 362.638 43.9147C362.479 43.7354 362.391 43.4977 362.391 43.2506C362.391 43.0034 362.479 42.7657 362.638 42.5865C362.796 42.4073 363.013 42.3003 363.243 42.2875H393.164C393.394 42.3003 393.61 42.4073 393.769 42.5865C393.928 42.7657 394.016 43.0034 394.016 43.2506C394.016 43.4977 393.928 43.7354 393.769 43.9147C393.61 44.0939 393.394 44.2009 393.164 44.2136Z" fill="white"/>
<path d="M381.378 48.8096H363.243C363.013 48.7968 362.796 48.6898 362.638 48.5106C362.479 48.3314 362.391 48.0937 362.391 47.8465C362.391 47.5994 362.479 47.3616 362.638 47.1824C362.796 47.0032 363.013 46.8962 363.243 46.8835H381.378C381.608 46.8962 381.825 47.0032 381.984 47.1824C382.142 47.3616 382.231 47.5994 382.231 47.8465C382.231 48.0937 382.142 48.3314 381.984 48.5106C381.825 48.6898 381.608 48.7968 381.378 48.8096Z" fill="white"/>
</svg>
